<svg width="1442" height="632" viewBox="0 0 1442 632" fill="none" xmlns="http://www.w3.org/2000/svg">
<rect x="1" y="1.19" width="90" height="90" stroke="black"/>
<rect x="91" y="1.19" width="90" height="90" stroke="black"/>
<rect x="181" y="1.19" width="90" height="90" stroke="black"/>
<rect x="271" y="1.19" width="90" height="90" stroke="black"/>
<rect x="361" y="1.19" width="90" height="90" stroke="black"/>
<rect x="451" y="1.19" width="90" height="90" stroke="black"/>
<rect x="541" y="1.19" width="90" height="90" stroke="black"/>
<rect x="631" y="1.19" width="90" height="90" stroke="black"/>
<rect x="721" y="1.19" width="90" height="90" stroke="black"/>
<rect x="811" y="1.19" width="90" height="90" stroke="black"/>
<rect x="901" y="1.19" width="90" height="90" stroke="black"/>
<g clip-path="url(#clip0_790_2834)">
<line x1="1036.5" y1="1.19" x2="1036.5" y2="91.19" stroke="black"/>
<line x1="1081" y1="46.69" x2="991" y2="46.69" stroke="black"/>
</g>
<rect x="991" y="1.19" width="90" height="90" stroke="black"/>
<g clip-path="url(#clip1_790_2834)">
<line x1="1126.5" y1="1.19" x2="1126.5" y2="91.19" stroke="black"/>
<line x1="1171" y1="46.69" x2="1081" y2="46.69" stroke="black"/>
</g>
<rect x="1081" y="1.19" width="90" height="90" stroke="black"/>
<g clip-path="url(#clip2_790_2834)">
<line x1="1216.5" y1="1.19" x2="1216.5" y2="91.19" stroke="black"/>
<line x1="1261" y1="46.69" x2="1171" y2="46.69" stroke="black"/>
</g>
<rect x="1171" y="1.19" width="90" height="90" stroke="black"/>
<rect x="1261" y="1.19" width="90" height="90" stroke="black"/>
<rect x="1351" y="1.19" width="90" height="90" stroke="black"/>
<rect x="1" y="91.19" width="90" height="90" stroke="black"/>
<rect x="91" y="91.19" width="90" height="90" stroke="black"/>
<rect x="181" y="91.19" width="90" height="90" stroke="black"/>
<g clip-path="url(#clip3_790_2834)">
<circle cx="316" cy="136.19" r="45" stroke="black"/>
</g>
<rect x="271" y="91.19" width="90" height="90" stroke="black"/>
<g clip-path="url(#clip4_790_2834)">
<circle cx="406" cy="136.19" r="45" stroke="black"/>
</g>
<rect x="361" y="91.19" width="90" height="90" stroke="black"/>
<rect x="451" y="91.19" width="90" height="90" stroke="black"/>
<rect x="541" y="91.19" width="90" height="90" stroke="black"/>
<rect x="631" y="91.19" width="90" height="90" stroke="black"/>
<rect x="721" y="91.19" width="90" height="90" stroke="black"/>
<rect x="811" y="91.19" width="90" height="90" stroke="black"/>
<rect x="901" y="91.19" width="90" height="90" stroke="black"/>
<g clip-path="url(#clip5_790_2834)">
<line x1="1036.5" y1="91.19" x2="1036.5" y2="181.19" stroke="black"/>
<line x1="1081" y1="136.69" x2="991" y2="136.69" stroke="black"/>
</g>
<rect x="991" y="91.19" width="90" height="90" stroke="black"/>
<g clip-path="url(#clip6_790_2834)">
<line x1="1126.5" y1="91.19" x2="1126.5" y2="181.19" stroke="black"/>
<line x1="1171" y1="136.69" x2="1081" y2="136.69" stroke="black"/>
</g>
<rect x="1081" y="91.19" width="90" height="90" stroke="black"/>
<g clip-path="url(#clip7_790_2834)">
<line x1="1216.5" y1="91.19" x2="1216.5" y2="181.19" stroke="black"/>
<line x1="1261" y1="136.69" x2="1171" y2="136.69" stroke="black"/>
</g>
<rect x="1171" y="91.19" width="90" height="90" stroke="black"/>
<rect x="1261" y="91.19" width="90" height="90" stroke="black"/>
<rect x="1351" y="91.19" width="90" height="90" stroke="black"/>
<rect x="1" y="181.19" width="90" height="90" stroke="black"/>
<rect x="91" y="181.19" width="90" height="90" stroke="black"/>
<rect x="181" y="181.19" width="90" height="90" stroke="black"/>
<rect x="271" y="181.19" width="90" height="90" stroke="black"/>
<rect x="361" y="181.19" width="90" height="90" stroke="black"/>
<rect x="451" y="181.19" width="90" height="90" stroke="black"/>
<rect x="541" y="181.19" width="90" height="90" stroke="black"/>
<rect x="631" y="181.19" width="90" height="90" stroke="black"/>
<rect x="721" y="181.19" width="90" height="90" stroke="black"/>
<rect x="811" y="181.19" width="90" height="90" stroke="black"/>
<rect x="901" y="181.19" width="90" height="90" stroke="black"/>
<g clip-path="url(#clip8_790_2834)">
<line x1="1036.5" y1="181.19" x2="1036.5" y2="271.19" stroke="black"/>
<line x1="1081" y1="226.69" x2="991" y2="226.69" stroke="black"/>
</g>
<rect x="991" y="181.19" width="90" height="90" stroke="black"/>
<g clip-path="url(#clip9_790_2834)">
<line x1="1126.5" y1="181.19" x2="1126.5" y2="271.19" stroke="black"/>
<line x1="1171" y1="226.69" x2="1081" y2="226.69" stroke="black"/>
</g>
<rect x="1081" y="181.19" width="90" height="90" stroke="black"/>
<g clip-path="url(#clip10_790_2834)">
<line x1="1216.5" y1="181.19" x2="1216.5" y2="271.19" stroke="black"/>
<line x1="1261" y1="226.69" x2="1171" y2="226.69" stroke="black"/>
</g>
<rect x="1171" y="181.19" width="90" height="90" stroke="black"/>
<rect x="1261" y="181.19" width="90" height="90" stroke="black"/>
<rect x="1351" y="181.19" width="90" height="90" stroke="black"/>
<rect x="1" y="271.19" width="90" height="90" stroke="black"/>
<rect x="91" y="271.19" width="90" height="90" stroke="black"/>
<rect x="181" y="271.19" width="90" height="90" stroke="black"/>
<rect x="271" y="271.19" width="90" height="90" stroke="black"/>
<rect x="361" y="271.19" width="90" height="90" stroke="black"/>
<rect x="451" y="271.19" width="90" height="90" stroke="black"/>
<rect x="541" y="271.19" width="90" height="90" stroke="black"/>
<rect x="631" y="271.19" width="90" height="90" stroke="black"/>
<rect x="721" y="271.19" width="90" height="90" stroke="black"/>
<rect x="811" y="271.19" width="90" height="90" stroke="black"/>
<rect x="901" y="271.19" width="90" height="90" stroke="black"/>
<rect x="991" y="271.19" width="90" height="90" stroke="black"/>
<rect x="1081" y="271.19" width="90" height="90" stroke="black"/>
<rect x="1171" y="271.19" width="90" height="90" stroke="black"/>
<rect x="1261" y="271.19" width="90" height="90" stroke="black"/>
<rect x="1351" y="271.19" width="90" height="90" stroke="black"/>
<rect x="1" y="361.19" width="90" height="90" stroke="black"/>
<rect x="91" y="361.19" width="90" height="90" stroke="black"/>
<rect x="181" y="361.19" width="90" height="90" stroke="black"/>
<rect x="271" y="361.19" width="90" height="90" stroke="black"/>
<rect x="361" y="361.19" width="90" height="90" stroke="black"/>
<rect x="451" y="361.19" width="90" height="90" stroke="black"/>
<rect x="541" y="361.19" width="90" height="90" stroke="black"/>
<rect x="631" y="361.19" width="90" height="90" stroke="black"/>
<rect x="721" y="361.19" width="90" height="90" stroke="black"/>
<g clip-path="url(#clip11_790_2834)">
<ellipse cx="901" cy="406.19" rx="90" ry="45" stroke="black"/>
</g>
<rect x="811" y="361.19" width="90" height="90" stroke="black"/>
<g clip-path="url(#clip12_790_2834)">
<ellipse cx="901" cy="406.19" rx="90" ry="45" transform="rotate(-180 901 406.19)" stroke="black"/>
</g>
<rect x="991" y="451.19" width="90" height="90" transform="rotate(-180 991 451.19)" stroke="black"/>
<rect x="991" y="361.19" width="90" height="90" stroke="black"/>
<rect x="1081" y="361.19" width="90" height="90" stroke="black"/>
<rect x="1171" y="361.19" width="90" height="90" stroke="black"/>
<rect x="1261" y="361.19" width="90" height="90" stroke="black"/>
<rect x="1351" y="361.19" width="90" height="90" stroke="black"/>
<rect x="1" y="451.19" width="90" height="90" stroke="black"/>
<rect x="91" y="451.19" width="90" height="90" stroke="black"/>
<rect x="631" y="226.19" width="180" height="180" fill="#F2F2F2"/>
<rect x="631" y="226.19" width="180" height="180" stroke="black"/>
<path d="M667.995 257.518L665.435 266.19H664.923L662.395 257.23C662.043 255.95 661.787 254.91 660.187 255.006V254.478H664.763V255.006C664.315 255.038 663.579 254.99 663.579 255.598C663.579 255.902 663.739 256.414 663.835 256.686L665.659 263.198L667.643 256.43C667.435 255.598 666.971 254.926 666.027 255.006V254.478H670.619V255.006C670.091 255.006 669.211 254.942 669.211 255.662C669.211 255.886 669.275 256.126 669.323 256.35L671.243 263.198L672.891 257.566C673.035 257.054 673.275 256.286 673.275 255.79C673.275 254.942 672.363 255.054 671.899 255.006V254.478H676.059V255.006C674.283 254.926 674.011 256.35 673.595 257.694L671.003 266.19H670.491L667.995 257.518ZM681.982 261.79H676.558C676.558 263.358 677.022 265.678 679.022 265.678C680.094 265.678 681.022 265.086 681.646 264.222L681.918 264.478C681.246 265.582 680.126 266.366 678.814 266.366C676.574 266.366 674.942 264.542 674.942 262.35C674.942 260.302 676.366 258.19 678.606 258.19C680.606 258.19 681.982 259.902 681.982 261.79ZM676.638 261.182H680.366C680.462 260.078 679.982 258.718 678.59 258.718C677.23 258.718 676.67 260.094 676.638 261.182ZM693.598 264.062L693.838 264.286C693.07 265.454 691.918 266.366 690.462 266.366C688.366 266.366 686.878 264.462 686.878 262.478C686.878 260.11 688.494 258.19 690.958 258.19C691.87 258.19 693.582 258.75 693.582 259.87C693.582 260.334 693.182 260.67 692.718 260.67C691.534 260.67 691.998 258.718 690.462 258.718C688.814 258.718 688.494 260.894 688.494 262.126C688.494 263.646 689.342 265.518 691.118 265.518C692.206 265.518 692.91 264.814 693.598 264.062ZM696.952 260.11V263.998C696.952 265.502 696.952 265.598 698.04 265.726V266.19H694.472V265.726C695.544 265.598 695.544 265.502 695.544 263.998V256.702C695.544 255.31 695.32 255.374 694.184 255.294V254.83L696.952 253.918V259.438C697.672 258.782 698.808 258.19 699.784 258.19C701.464 258.19 701.8 259.406 701.8 261.07V263.998C701.8 265.502 701.8 265.598 702.872 265.726V266.19H699.32V265.726C700.392 265.598 700.392 265.502 700.392 263.998V261.07C700.392 259.95 700.168 259.038 699.096 259.038C698.264 259.038 697.528 259.598 696.952 260.11ZM710.825 261.79H705.401C705.401 263.358 705.865 265.678 707.865 265.678C708.937 265.678 709.865 265.086 710.489 264.222L710.761 264.478C710.089 265.582 708.969 266.366 707.657 266.366C705.417 266.366 703.785 264.542 703.785 262.35C703.785 260.302 705.209 258.19 707.449 258.19C709.449 258.19 710.825 259.902 710.825 261.79ZM705.481 261.182H709.209C709.305 260.078 708.825 258.718 707.433 258.718C706.073 258.718 705.513 260.094 705.481 261.182ZM714.073 260.67V263.998C714.073 265.502 714.073 265.598 715.145 265.726V266.19H711.609V265.726C712.665 265.598 712.665 265.502 712.665 263.998V260.558C712.617 259.71 712.601 259.406 711.625 259.406V259.022L714.073 258.078V259.966C714.681 259.214 715.641 258.078 716.697 258.078C717.225 258.078 717.689 258.446 717.689 259.006C717.689 259.502 717.353 259.902 716.825 259.902C716.265 259.902 716.057 259.486 715.545 259.486C714.985 259.486 714.345 260.222 714.073 260.67ZM720.434 258.078V263.998C720.434 265.502 720.434 265.598 721.522 265.726V266.19H717.938V265.71C719.026 265.582 719.026 265.47 719.026 263.982V260.558C718.978 259.71 718.962 259.406 717.986 259.406V259.022L720.434 258.078ZM720.578 255.374C720.578 255.95 720.098 256.43 719.522 256.43C718.93 256.43 718.45 255.966 718.45 255.374C718.45 254.782 718.914 254.302 719.506 254.302C720.098 254.302 720.578 254.782 720.578 255.374ZM727.357 258.078L728.285 260.686L727.901 260.894C727.117 259.886 726.157 258.718 724.861 258.718C724.237 258.718 723.597 259.15 723.597 259.806C723.597 261.758 728.621 261.022 728.621 263.95C728.621 265.326 727.293 266.366 726.013 266.366C725.613 266.366 725.325 266.254 724.957 266.142C724.765 266.078 724.573 265.998 724.365 265.998C724.029 265.998 723.709 266.142 723.437 266.366L722.445 263.646L722.797 263.47C723.405 264.478 724.909 265.838 726.109 265.838C726.845 265.838 727.517 265.278 727.517 264.526C727.517 262.462 722.541 263.358 722.541 260.462C722.541 259.102 723.789 258.19 725.053 258.19C725.629 258.19 726.189 258.446 726.637 258.446C726.941 258.446 727.165 258.302 727.357 258.078ZM731.905 260.11V263.998C731.905 265.502 731.905 265.598 732.993 265.726V266.19H729.425V265.726C730.497 265.598 730.497 265.502 730.497 263.998V256.702C730.497 255.31 730.273 255.374 729.137 255.294V254.83L731.905 253.918V259.438C732.625 258.782 733.761 258.19 734.737 258.19C736.417 258.19 736.753 259.406 736.753 261.07V263.998C736.753 265.502 736.753 265.598 737.825 265.726V266.19H734.273V265.726C735.345 265.598 735.345 265.502 735.345 263.998V261.07C735.345 259.95 735.121 259.038 734.049 259.038C733.217 259.038 732.481 259.598 731.905 260.11ZM749.779 261.79H744.355C744.355 263.358 744.819 265.678 746.819 265.678C747.891 265.678 748.819 265.086 749.443 264.222L749.715 264.478C749.043 265.582 747.923 266.366 746.611 266.366C744.371 266.366 742.739 264.542 742.739 262.35C742.739 260.302 744.163 258.19 746.403 258.19C748.403 258.19 749.779 259.902 749.779 261.79ZM744.435 261.182H748.163C748.259 260.078 747.779 258.718 746.387 258.718C745.027 258.718 744.467 260.094 744.435 261.182ZM754.291 264.206L755.603 260.734C755.715 260.414 755.923 259.966 755.923 259.63C755.923 259.022 755.395 258.83 754.867 258.83V258.366H758.035V258.83C757.795 258.846 757.539 258.846 757.347 259.006C757.043 259.278 756.723 260.142 756.579 260.526L754.323 266.19H753.555L751.139 260.062C750.899 259.486 750.739 258.846 750.003 258.83V258.366H753.555V258.83C753.139 258.83 752.531 258.894 752.531 259.438C752.531 259.678 752.691 260.094 752.771 260.302L754.291 264.206ZM765.357 261.79H759.933C759.933 263.358 760.397 265.678 762.397 265.678C763.469 265.678 764.397 265.086 765.021 264.222L765.293 264.478C764.621 265.582 763.501 266.366 762.189 266.366C759.949 266.366 758.317 264.542 758.317 262.35C758.317 260.302 759.741 258.19 761.981 258.19C763.981 258.19 765.357 259.902 765.357 261.79ZM760.013 261.182H763.741C763.837 260.078 763.357 258.718 761.965 258.718C760.605 258.718 760.045 260.094 760.013 261.182ZM768.605 260.67V263.998C768.605 265.502 768.605 265.598 769.677 265.726V266.19H766.141V265.726C767.197 265.598 767.197 265.502 767.197 263.998V260.558C767.149 259.71 767.133 259.406 766.157 259.406V259.022L768.605 258.078V259.966C769.213 259.214 770.173 258.078 771.229 258.078C771.757 258.078 772.221 258.446 772.221 259.006C772.221 259.502 771.885 259.902 771.357 259.902C770.797 259.902 770.589 259.486 770.077 259.486C769.517 259.486 768.877 260.222 768.605 260.67ZM777.653 264.19L779.013 260.702C779.125 260.414 779.349 259.822 779.349 259.502C779.349 258.894 778.629 258.83 778.165 258.83V258.366H781.573V258.83C781.301 258.846 780.981 258.846 780.757 259.038C780.293 259.374 779.909 260.43 779.701 260.99L777.397 266.718C776.965 267.87 776.405 269.182 774.981 269.182C774.389 269.182 773.733 268.798 773.733 268.126C773.733 267.646 774.117 267.31 774.581 267.31C775.205 267.31 775.381 267.934 775.781 267.934C776.437 267.934 776.709 266.542 776.933 266.062L774.645 260.286C774.341 259.55 774.181 258.83 773.237 258.83V258.366H776.853V258.83C776.517 258.83 775.893 258.846 775.893 259.294C775.893 259.534 776.005 259.838 776.101 260.062L777.653 264.19ZM666.957 282.062L667.197 282.286C666.429 283.454 665.277 284.366 663.821 284.366C661.725 284.366 660.237 282.462 660.237 280.478C660.237 278.11 661.853 276.19 664.317 276.19C665.229 276.19 666.941 276.75 666.941 277.87C666.941 278.334 666.541 278.67 666.077 278.67C664.893 278.67 665.357 276.718 663.821 276.718C662.173 276.718 661.853 278.894 661.853 280.126C661.853 281.646 662.701 283.518 664.477 283.518C665.565 283.518 666.269 282.814 666.957 282.062ZM670.311 278.11V281.998C670.311 283.502 670.311 283.598 671.399 283.726V284.19H667.831V283.726C668.903 283.598 668.903 283.502 668.903 281.998V274.702C668.903 273.31 668.679 273.374 667.543 273.294V272.83L670.311 271.918V277.438C671.031 276.782 672.167 276.19 673.143 276.19C674.823 276.19 675.159 277.406 675.159 279.07V281.998C675.159 283.502 675.159 283.598 676.231 283.726V284.19H672.679V283.726C673.751 283.598 673.751 283.502 673.751 281.998V279.07C673.751 277.95 673.527 277.038 672.455 277.038C671.623 277.038 670.887 277.598 670.311 278.11ZM681.593 282.606V279.998C680.457 280.19 678.697 280.958 678.697 282.286C678.697 283.038 679.225 283.518 679.865 283.518C680.457 283.518 681.193 283.054 681.593 282.606ZM681.593 279.47V278.414C681.593 277.63 681.433 276.718 680.473 276.718C679.673 276.718 679.337 277.246 679.161 277.934C679.017 278.43 678.809 278.734 678.233 278.734C677.785 278.734 677.481 278.462 677.481 278.03C677.481 276.702 679.353 276.19 680.393 276.19C681.065 276.19 681.881 276.302 682.425 276.75C683.001 277.23 683.001 277.902 683.001 278.574V282.222C683.001 282.606 683.001 283.31 683.481 283.31C683.753 283.31 683.945 283.118 684.137 282.91L684.345 283.246C683.945 283.838 683.465 284.366 682.713 284.366C682.057 284.366 681.689 283.854 681.625 283.246C680.889 283.838 680.025 284.366 679.065 284.366C677.945 284.366 677.177 283.598 677.177 282.462C677.177 280.334 679.961 279.79 681.593 279.47ZM687.059 278.094V281.998C687.059 283.502 687.059 283.598 688.131 283.726V284.19H684.563V283.726C685.651 283.598 685.651 283.502 685.651 281.998V278.558C685.603 277.71 685.587 277.406 684.611 277.406V277.022L687.059 276.078V277.438C687.667 276.782 688.675 276.19 689.571 276.19C690.131 276.19 690.691 276.414 691.091 276.814C691.619 277.406 691.635 278.142 691.635 278.894V281.998C691.635 283.502 691.635 283.598 692.707 283.726V284.19H689.123V283.726C690.227 283.598 690.227 283.502 690.227 281.998V279.198C690.227 278.238 690.163 277.038 688.899 277.038C688.195 277.038 687.539 277.614 687.059 278.094ZM700.223 282.062L700.463 282.286C699.695 283.454 698.543 284.366 697.087 284.366C694.991 284.366 693.503 282.462 693.503 280.478C693.503 278.11 695.119 276.19 697.583 276.19C698.495 276.19 700.207 276.75 700.207 277.87C700.207 278.334 699.807 278.67 699.343 278.67C698.159 278.67 698.623 276.718 697.087 276.718C695.439 276.718 695.119 278.894 695.119 280.126C695.119 281.646 695.967 283.518 697.743 283.518C698.831 283.518 699.535 282.814 700.223 282.062ZM708.185 279.79H702.761C702.761 281.358 703.225 283.678 705.225 283.678C706.297 283.678 707.225 283.086 707.849 282.222L708.121 282.478C707.449 283.582 706.329 284.366 705.017 284.366C702.777 284.366 701.145 282.542 701.145 280.35C701.145 278.302 702.569 276.19 704.809 276.19C706.809 276.19 708.185 277.902 708.185 279.79ZM702.841 279.182H706.569C706.665 278.078 706.185 276.718 704.793 276.718C703.433 276.718 702.873 278.094 702.841 279.182ZM713.945 276.894H712.777V276.51C713.961 276.014 714.681 274.782 714.825 273.566H715.353V276.366H717.593V276.894H715.353V281.742C715.353 282.462 715.273 283.518 716.265 283.518C716.889 283.518 717.273 283.118 717.673 282.718L717.945 283.038C717.337 283.726 716.537 284.366 715.561 284.366C714.153 284.366 713.945 283.214 713.945 282.078V276.894ZM721.698 284.366C719.65 284.366 718.162 282.382 718.162 280.414C718.162 278.334 719.538 276.19 721.794 276.19C724.018 276.19 725.346 278.366 725.346 280.398C725.346 282.446 723.826 284.366 721.698 284.366ZM721.698 283.838C723.362 283.838 723.73 281.326 723.73 280.094C723.73 278.926 723.362 276.718 721.794 276.718C720.178 276.718 719.778 278.83 719.778 280.062C719.778 281.198 720.146 283.838 721.698 283.838ZM734.968 282.606V279.998C733.832 280.19 732.072 280.958 732.072 282.286C732.072 283.038 732.6 283.518 733.24 283.518C733.832 283.518 734.568 283.054 734.968 282.606ZM734.968 279.47V278.414C734.968 277.63 734.808 276.718 733.848 276.718C733.048 276.718 732.712 277.246 732.536 277.934C732.392 278.43 732.184 278.734 731.608 278.734C731.16 278.734 730.856 278.462 730.856 278.03C730.856 276.702 732.728 276.19 733.768 276.19C734.44 276.19 735.256 276.302 735.8 276.75C736.376 277.23 736.376 277.902 736.376 278.574V282.222C736.376 282.606 736.376 283.31 736.856 283.31C737.128 283.31 737.32 283.118 737.512 282.91L737.72 283.246C737.32 283.838 736.84 284.366 736.088 284.366C735.432 284.366 735.064 283.854 735 283.246C734.264 283.838 733.4 284.366 732.44 284.366C731.32 284.366 730.552 283.598 730.552 282.462C730.552 280.334 733.336 279.79 734.968 279.47ZM744.754 282.062L744.994 282.286C744.226 283.454 743.074 284.366 741.618 284.366C739.522 284.366 738.034 282.462 738.034 280.478C738.034 278.11 739.65 276.19 742.114 276.19C743.026 276.19 744.738 276.75 744.738 277.87C744.738 278.334 744.338 278.67 743.874 278.67C742.69 278.67 743.154 276.718 741.618 276.718C739.97 276.718 739.65 278.894 739.65 280.126C739.65 281.646 740.498 283.518 742.274 283.518C743.362 283.518 744.066 282.814 744.754 282.062ZM748.108 278.11V281.998C748.108 283.502 748.108 283.598 749.196 283.726V284.19H745.628V283.726C746.7 283.598 746.7 283.502 746.7 281.998V274.702C746.7 273.31 746.476 273.374 745.34 273.294V272.83L748.108 271.918V277.438C748.828 276.782 749.964 276.19 750.94 276.19C752.62 276.19 752.956 277.406 752.956 279.07V281.998C752.956 283.502 752.956 283.598 754.028 283.726V284.19H750.476V283.726C751.548 283.598 751.548 283.502 751.548 281.998V279.07C751.548 277.95 751.324 277.038 750.252 277.038C749.42 277.038 748.684 277.598 748.108 278.11ZM757.278 276.078V281.998C757.278 283.502 757.278 283.598 758.366 283.726V284.19H754.782V283.71C755.87 283.582 755.87 283.47 755.87 281.982V278.558C755.822 277.71 755.806 277.406 754.83 277.406V277.022L757.278 276.078ZM757.422 273.374C757.422 273.95 756.942 274.43 756.366 274.43C755.774 274.43 755.294 273.966 755.294 273.374C755.294 272.782 755.758 272.302 756.35 272.302C756.942 272.302 757.422 272.782 757.422 273.374ZM766.185 279.79H760.761C760.761 281.358 761.225 283.678 763.225 283.678C764.297 283.678 765.225 283.086 765.849 282.222L766.121 282.478C765.449 283.582 764.329 284.366 763.017 284.366C760.777 284.366 759.145 282.542 759.145 280.35C759.145 278.302 760.569 276.19 762.809 276.19C764.809 276.19 766.185 277.902 766.185 279.79ZM760.841 279.182H764.569C764.665 278.078 764.185 276.718 762.793 276.718C761.433 276.718 760.873 278.094 760.841 279.182ZM770.697 282.206L772.009 278.734C772.121 278.414 772.329 277.966 772.329 277.63C772.329 277.022 771.801 276.83 771.273 276.83V276.366H774.441V276.83C774.201 276.846 773.945 276.846 773.753 277.006C773.449 277.278 773.129 278.142 772.985 278.526L770.729 284.19H769.961L767.545 278.062C767.305 277.486 767.145 276.846 766.409 276.83V276.366H769.961V276.83C769.545 276.83 768.937 276.894 768.937 277.438C768.937 277.678 769.097 278.094 769.177 278.302L770.697 282.206ZM781.763 279.79H776.339C776.339 281.358 776.803 283.678 778.803 283.678C779.875 283.678 780.803 283.086 781.427 282.222L781.699 282.478C781.027 283.582 779.907 284.366 778.595 284.366C776.355 284.366 774.723 282.542 774.723 280.35C774.723 278.302 776.147 276.19 778.387 276.19C780.387 276.19 781.763 277.902 781.763 279.79ZM776.419 279.182H780.147C780.243 278.078 779.763 276.718 778.371 276.718C777.011 276.718 776.451 278.094 776.419 279.182ZM669.296 294.894H668.128V294.51C669.312 294.014 670.032 292.782 670.176 291.566H670.704V294.366H672.944V294.894H670.704V299.742C670.704 300.462 670.624 301.518 671.616 301.518C672.24 301.518 672.624 301.118 673.024 300.718L673.296 301.038C672.688 301.726 671.888 302.366 670.912 302.366C669.504 302.366 669.296 301.214 669.296 300.078V294.894ZM675.866 296.11V299.998C675.866 301.502 675.866 301.598 676.954 301.726V302.19H673.386V301.726C674.458 301.598 674.458 301.502 674.458 299.998V292.702C674.458 291.31 674.234 291.374 673.098 291.294V290.83L675.866 289.918V295.438C676.586 294.782 677.722 294.19 678.698 294.19C680.378 294.19 680.714 295.406 680.714 297.07V299.998C680.714 301.502 680.714 301.598 681.786 301.726V302.19H678.234V301.726C679.306 301.598 679.306 301.502 679.306 299.998V297.07C679.306 295.95 679.082 295.038 678.01 295.038C677.178 295.038 676.442 295.598 675.866 296.11ZM685.036 294.078V299.998C685.036 301.502 685.036 301.598 686.124 301.726V302.19H682.54V301.71C683.628 301.582 683.628 301.47 683.628 299.982V296.558C683.58 295.71 683.564 295.406 682.588 295.406V295.022L685.036 294.078ZM685.18 291.374C685.18 291.95 684.7 292.43 684.124 292.43C683.532 292.43 683.052 291.966 683.052 291.374C683.052 290.782 683.516 290.302 684.108 290.302C684.7 290.302 685.18 290.782 685.18 291.374ZM691.959 294.078L692.887 296.686L692.503 296.894C691.719 295.886 690.759 294.718 689.463 294.718C688.839 294.718 688.199 295.15 688.199 295.806C688.199 297.758 693.223 297.022 693.223 299.95C693.223 301.326 691.895 302.366 690.615 302.366C690.215 302.366 689.927 302.254 689.559 302.142C689.367 302.078 689.175 301.998 688.967 301.998C688.631 301.998 688.311 302.142 688.039 302.366L687.047 299.646L687.399 299.47C688.007 300.478 689.511 301.838 690.711 301.838C691.447 301.838 692.119 301.278 692.119 300.526C692.119 298.462 687.143 299.358 687.143 296.462C687.143 295.102 688.391 294.19 689.655 294.19C690.231 294.19 690.791 294.446 691.239 294.446C691.543 294.446 691.767 294.302 691.959 294.078ZM694.603 304.718L694.411 304.446C694.859 304.03 695.595 303.342 695.595 302.782C695.595 302.526 695.451 302.446 695.243 302.334C694.811 302.142 694.539 301.854 694.539 301.342C694.539 300.782 694.987 300.35 695.531 300.35C696.347 300.35 696.715 301.134 696.715 301.854C696.715 303.102 695.579 304.11 694.603 304.718ZM709.115 297.79H703.691C703.691 299.358 704.155 301.678 706.155 301.678C707.227 301.678 708.155 301.086 708.779 300.222L709.051 300.478C708.379 301.582 707.259 302.366 705.947 302.366C703.707 302.366 702.075 300.542 702.075 298.35C702.075 296.302 703.499 294.19 705.739 294.19C707.739 294.19 709.115 295.902 709.115 297.79ZM703.771 297.182H707.499C707.595 296.078 707.115 294.718 705.723 294.718C704.363 294.718 703.803 296.094 703.771 297.182ZM712.411 296.206V299.998C712.411 301.502 712.411 301.598 713.499 301.726V302.19H709.915V301.726C711.003 301.598 711.003 301.502 711.003 299.998V296.558C710.955 295.71 710.939 295.406 709.963 295.406V295.022L712.411 294.078V295.662C713.035 294.846 714.011 294.19 715.067 294.19C715.979 294.19 716.667 294.83 716.971 295.662C717.739 294.91 718.571 294.19 719.707 294.19C720.395 294.19 721.051 294.43 721.419 295.07C721.771 295.678 721.755 296.558 721.755 297.278V299.998C721.755 301.502 721.755 301.598 722.827 301.726V302.19H719.259V301.726C720.347 301.598 720.347 301.502 720.347 299.998V297.134C720.347 296.27 720.363 295.038 719.179 295.038C718.347 295.038 717.611 295.63 717.083 296.206V299.998C717.083 301.502 717.083 301.598 718.171 301.726V302.19H714.603V301.726C715.675 301.598 715.675 301.502 715.675 299.998V297.134C715.675 296.27 715.643 295.038 714.459 295.038C713.627 295.038 712.891 295.63 712.411 296.206ZM725.767 295.838V300.75C726.231 301.182 726.807 301.678 727.479 301.678C729.223 301.678 729.559 299.486 729.559 298.126C729.559 296.766 729.143 294.878 727.447 294.878C726.887 294.878 726.119 295.422 725.767 295.838ZM725.767 301.39V302.798C725.767 304.302 725.767 304.398 726.839 304.542V305.006H723.271V304.542C724.359 304.398 724.359 304.302 724.359 302.798V296.558C724.327 295.71 724.263 295.406 723.303 295.406V295.022L725.767 294.078V295.214C726.439 294.638 727.143 294.19 728.039 294.19C730.039 294.19 731.095 296.334 731.079 298.078C731.095 300.062 730.103 302.366 727.815 302.366C727.031 302.366 726.295 301.934 725.767 301.39ZM733.02 299.998V292.702C733.02 291.31 732.796 291.374 731.66 291.294V290.83L734.428 289.918V299.998C734.428 301.502 734.428 301.598 735.532 301.726V302.19H731.948V301.726C733.02 301.598 733.02 301.502 733.02 299.998ZM739.816 302.366C737.768 302.366 736.28 300.382 736.28 298.414C736.28 296.334 737.656 294.19 739.911 294.19C742.136 294.19 743.464 296.366 743.464 298.398C743.464 300.446 741.944 302.366 739.816 302.366ZM739.816 301.838C741.48 301.838 741.848 299.326 741.848 298.094C741.848 296.926 741.48 294.718 739.911 294.718C738.296 294.718 737.896 296.83 737.896 298.062C737.896 299.198 738.264 301.838 739.816 301.838ZM748.317 300.19L749.677 296.702C749.789 296.414 750.013 295.822 750.013 295.502C750.013 294.894 749.293 294.83 748.829 294.83V294.366H752.237V294.83C751.965 294.846 751.645 294.846 751.421 295.038C750.957 295.374 750.573 296.43 750.365 296.99L748.061 302.718C747.629 303.87 747.069 305.182 745.645 305.182C745.053 305.182 744.397 304.798 744.397 304.126C744.397 303.646 744.781 303.31 745.245 303.31C745.869 303.31 746.045 303.934 746.445 303.934C747.101 303.934 747.373 302.542 747.597 302.062L745.309 296.286C745.005 295.55 744.845 294.83 743.901 294.83V294.366H747.517V294.83C747.181 294.83 746.557 294.846 746.557 295.294C746.557 295.534 746.669 295.838 746.765 296.062L748.317 300.19ZM754.973 294.078V299.998C754.973 301.502 754.973 301.598 756.061 301.726V302.19H752.477V301.71C753.565 301.582 753.565 301.47 753.565 299.982V296.558C753.517 295.71 753.501 295.406 752.525 295.406V295.022L754.973 294.078ZM755.117 291.374C755.117 291.95 754.637 292.43 754.061 292.43C753.469 292.43 752.989 291.966 752.989 291.374C752.989 290.782 753.453 290.302 754.045 290.302C754.637 290.302 755.117 290.782 755.117 291.374ZM759.176 296.094V299.998C759.176 301.502 759.176 301.598 760.248 301.726V302.19H756.68V301.726C757.768 301.598 757.768 301.502 757.768 299.998V296.558C757.72 295.71 757.704 295.406 756.728 295.406V295.022L759.176 294.078V295.438C759.784 294.782 760.792 294.19 761.688 294.19C762.248 294.19 762.808 294.414 763.208 294.814C763.736 295.406 763.752 296.142 763.752 296.894V299.998C763.752 301.502 763.752 301.598 764.824 301.726V302.19H761.24V301.726C762.344 301.598 762.344 301.502 762.344 299.998V297.198C762.344 296.238 762.28 295.038 761.016 295.038C760.312 295.038 759.656 295.614 759.176 296.094ZM770.692 302.526L768.532 301.918C767.876 302.126 766.708 302.478 766.708 303.342C766.708 304.398 768.628 304.478 769.444 304.478C770.164 304.478 771.86 304.382 771.86 303.47C771.86 302.878 771.14 302.67 770.692 302.526ZM768.82 300.75L770.084 301.054C771.156 301.326 773.06 301.582 773.06 303.038C773.06 304.798 770.612 305.006 769.268 305.006C768.228 305.006 765.3 304.862 765.3 303.406C765.3 302.27 766.916 301.998 767.716 301.726C767.252 301.55 766.052 301.278 766.052 300.59C766.052 299.918 766.916 299.55 767.476 299.422C766.612 298.926 766.116 297.998 766.116 296.99C766.116 295.246 767.716 294.19 769.332 294.19C770.084 294.19 770.9 294.414 771.476 294.958C771.892 294.542 772.484 294.11 773.124 294.11C773.604 294.11 773.94 294.494 773.94 294.974C773.94 295.358 773.668 295.742 773.284 295.742C772.692 295.742 772.628 295.102 772.068 295.102C771.956 295.102 771.86 295.166 771.764 295.246C772.212 295.678 772.404 296.478 772.404 297.086C772.404 298.782 770.804 299.886 769.268 299.886C768.868 299.886 768.308 299.806 767.94 299.646C767.764 299.71 767.476 299.806 767.476 300.046C767.476 300.478 768.532 300.67 768.82 300.75ZM770.884 297.15C770.884 296.222 770.468 294.718 769.3 294.718C768.084 294.718 767.636 296.094 767.636 297.102C767.636 298.158 768.116 299.358 769.332 299.358C770.532 299.358 770.884 298.142 770.884 297.15ZM660.351 318.606V315.998C659.215 316.19 657.455 316.958 657.455 318.286C657.455 319.038 657.983 319.518 658.623 319.518C659.215 319.518 659.951 319.054 660.351 318.606ZM660.351 315.47V314.414C660.351 313.63 660.191 312.718 659.231 312.718C658.431 312.718 658.095 313.246 657.919 313.934C657.775 314.43 657.567 314.734 656.991 314.734C656.543 314.734 656.239 314.462 656.239 314.03C656.239 312.702 658.111 312.19 659.151 312.19C659.823 312.19 660.639 312.302 661.183 312.75C661.759 313.23 661.759 313.902 661.759 314.574V318.222C661.759 318.606 661.759 319.31 662.239 319.31C662.511 319.31 662.703 319.118 662.895 318.91L663.103 319.246C662.703 319.838 662.223 320.366 661.471 320.366C660.815 320.366 660.447 319.854 660.383 319.246C659.647 319.838 658.783 320.366 657.823 320.366C656.703 320.366 655.935 319.598 655.935 318.462C655.935 316.334 658.719 315.79 660.351 315.47ZM665.769 314.67V317.998C665.769 319.502 665.769 319.598 666.841 319.726V320.19H663.305V319.726C664.361 319.598 664.361 319.502 664.361 317.998V314.558C664.313 313.71 664.297 313.406 663.321 313.406V313.022L665.769 312.078V313.966C666.377 313.214 667.337 312.078 668.393 312.078C668.921 312.078 669.385 312.446 669.385 313.006C669.385 313.502 669.049 313.902 668.521 313.902C667.961 313.902 667.753 313.486 667.241 313.486C666.681 313.486 666.041 314.222 665.769 314.67ZM671.687 312.894H670.519V312.51C671.703 312.014 672.423 310.782 672.567 309.566H673.095V312.366H675.335V312.894H673.095V317.742C673.095 318.462 673.015 319.518 674.007 319.518C674.631 319.518 675.015 319.118 675.415 318.718L675.687 319.038C675.079 319.726 674.279 320.366 673.303 320.366C671.895 320.366 671.687 319.214 671.687 318.078V312.894ZM678.161 312.078V317.998C678.161 319.502 678.161 319.598 679.249 319.726V320.19H675.665V319.71C676.753 319.582 676.753 319.47 676.753 317.982V314.558C676.705 313.71 676.689 313.406 675.713 313.406V313.022L678.161 312.078ZM678.305 309.374C678.305 309.95 677.825 310.43 677.249 310.43C676.657 310.43 676.177 309.966 676.177 309.374C676.177 308.782 676.641 308.302 677.233 308.302C677.825 308.302 678.305 308.782 678.305 309.374ZM685.084 312.078L686.012 314.686L685.628 314.894C684.844 313.886 683.884 312.718 682.588 312.718C681.964 312.718 681.324 313.15 681.324 313.806C681.324 315.758 686.348 315.022 686.348 317.95C686.348 319.326 685.02 320.366 683.74 320.366C683.34 320.366 683.052 320.254 682.684 320.142C682.492 320.078 682.3 319.998 682.092 319.998C681.756 319.998 681.436 320.142 681.164 320.366L680.172 317.646L680.524 317.47C681.132 318.478 682.636 319.838 683.836 319.838C684.572 319.838 685.244 319.278 685.244 318.526C685.244 316.462 680.268 317.358 680.268 314.462C680.268 313.102 681.516 312.19 682.78 312.19C683.356 312.19 683.916 312.446 684.364 312.446C684.668 312.446 684.892 312.302 685.084 312.078ZM688 312.894H686.832V312.51C688.016 312.014 688.736 310.782 688.88 309.566H689.408V312.366H691.648V312.894H689.408V317.742C689.408 318.462 689.328 319.518 690.32 319.518C690.944 319.518 691.328 319.118 691.728 318.718L692 319.038C691.391 319.726 690.592 320.366 689.616 320.366C688.208 320.366 688 319.214 688 318.078V312.894ZM694.473 312.078V317.998C694.473 319.502 694.473 319.598 695.561 319.726V320.19H691.977V319.71C693.065 319.582 693.065 319.47 693.065 317.982V314.558C693.017 313.71 693.001 313.406 692.025 313.406V313.022L694.473 312.078ZM694.617 309.374C694.617 309.95 694.137 310.43 693.561 310.43C692.969 310.43 692.489 309.966 692.489 309.374C692.489 308.782 692.953 308.302 693.545 308.302C694.137 308.302 694.617 308.782 694.617 309.374ZM702.996 318.062L703.236 318.286C702.468 319.454 701.316 320.366 699.86 320.366C697.764 320.366 696.276 318.462 696.276 316.478C696.276 314.11 697.892 312.19 700.356 312.19C701.268 312.19 702.98 312.75 702.98 313.87C702.98 314.334 702.58 314.67 702.116 314.67C700.932 314.67 701.396 312.718 699.86 312.718C698.212 312.718 697.892 314.894 697.892 316.126C697.892 317.646 698.74 319.518 700.516 319.518C701.604 319.518 702.308 318.814 702.996 318.062ZM714.958 315.79H709.534C709.534 317.358 709.998 319.678 711.998 319.678C713.07 319.678 713.998 319.086 714.622 318.222L714.894 318.478C714.222 319.582 713.102 320.366 711.79 320.366C709.55 320.366 707.918 318.542 707.918 316.35C707.918 314.302 709.342 312.19 711.582 312.19C713.582 312.19 714.958 313.902 714.958 315.79ZM709.614 315.182H713.342C713.438 314.078 712.958 312.718 711.566 312.718C710.206 312.718 709.646 314.094 709.614 315.182ZM720.11 315.998L721.822 318.126C722.302 318.75 723.022 319.71 723.902 319.726V320.19H720.19V319.726C720.43 319.71 720.958 319.726 720.958 319.374C720.958 319.134 720.574 318.75 720.446 318.59L719.23 317.086L718.35 318.222C718.174 318.478 717.79 318.814 717.79 319.15C717.79 319.678 718.478 319.726 718.862 319.726V320.19H715.342V319.726C716.414 319.598 717.086 318.622 717.71 317.854L718.782 316.494L716.846 314.062C716.478 313.614 715.918 312.846 715.278 312.83V312.366H719.102V312.83C718.718 312.83 718.142 312.814 718.142 313.246C718.142 313.566 718.574 314.03 718.766 314.27L719.662 315.39L720.462 314.35C720.654 314.094 721.038 313.678 721.038 313.342C721.038 312.83 720.494 312.83 720.11 312.83V312.366H723.486V312.83C722.526 312.766 722.062 313.47 721.534 314.142L720.11 315.998ZM726.564 313.838V318.75C727.028 319.182 727.604 319.678 728.276 319.678C730.02 319.678 730.356 317.486 730.356 316.126C730.356 314.766 729.94 312.878 728.244 312.878C727.684 312.878 726.916 313.422 726.564 313.838ZM726.564 319.39V320.798C726.564 322.302 726.564 322.398 727.636 322.542V323.006H724.068V322.542C725.156 322.398 725.156 322.302 725.156 320.798V314.558C725.124 313.71 725.06 313.406 724.1 313.406V313.022L726.564 312.078V313.214C727.236 312.638 727.94 312.19 728.836 312.19C730.836 312.19 731.892 314.334 731.876 316.078C731.892 318.062 730.9 320.366 728.612 320.366C727.828 320.366 727.092 319.934 726.564 319.39ZM735.081 314.67V317.998C735.081 319.502 735.081 319.598 736.153 319.726V320.19H732.617V319.726C733.673 319.598 733.673 319.502 733.673 317.998V314.558C733.625 313.71 733.609 313.406 732.633 313.406V313.022L735.081 312.078V313.966C735.689 313.214 736.649 312.078 737.705 312.078C738.233 312.078 738.697 312.446 738.697 313.006C738.697 313.502 738.361 313.902 737.833 313.902C737.273 313.902 737.065 313.486 736.553 313.486C735.993 313.486 735.353 314.222 735.081 314.67ZM746.333 315.79H740.909C740.909 317.358 741.373 319.678 743.373 319.678C744.445 319.678 745.373 319.086 745.997 318.222L746.269 318.478C745.597 319.582 744.477 320.366 743.165 320.366C740.925 320.366 739.293 318.542 739.293 316.35C739.293 314.302 740.717 312.19 742.957 312.19C744.957 312.19 746.333 313.902 746.333 315.79ZM740.989 315.182H744.717C744.813 314.078 744.333 312.718 742.941 312.718C741.581 312.718 741.021 314.094 740.989 315.182ZM752.349 312.078L753.277 314.686L752.893 314.894C752.109 313.886 751.149 312.718 749.853 312.718C749.229 312.718 748.589 313.15 748.589 313.806C748.589 315.758 753.613 315.022 753.613 317.95C753.613 319.326 752.285 320.366 751.005 320.366C750.605 320.366 750.317 320.254 749.949 320.142C749.757 320.078 749.565 319.998 749.357 319.998C749.021 319.998 748.701 320.142 748.429 320.366L747.437 317.646L747.789 317.47C748.397 318.478 749.901 319.838 751.101 319.838C751.837 319.838 752.509 319.278 752.509 318.526C752.509 316.462 747.533 317.358 747.533 314.462C747.533 313.102 748.781 312.19 750.045 312.19C750.621 312.19 751.181 312.446 751.629 312.446C751.933 312.446 752.157 312.302 752.349 312.078ZM759.521 312.078L760.449 314.686L760.065 314.894C759.281 313.886 758.321 312.718 757.025 312.718C756.401 312.718 755.761 313.15 755.761 313.806C755.761 315.758 760.785 315.022 760.785 317.95C760.785 319.326 759.457 320.366 758.177 320.366C757.777 320.366 757.489 320.254 757.121 320.142C756.929 320.078 756.737 319.998 756.529 319.998C756.193 319.998 755.873 320.142 755.601 320.366L754.609 317.646L754.961 317.47C755.569 318.478 757.073 319.838 758.273 319.838C759.009 319.838 759.681 319.278 759.681 318.526C759.681 316.462 754.705 317.358 754.705 314.462C754.705 313.102 755.953 312.19 757.217 312.19C757.793 312.19 758.353 312.446 758.801 312.446C759.105 312.446 759.329 312.302 759.521 312.078ZM763.973 312.078V317.998C763.973 319.502 763.973 319.598 765.061 319.726V320.19H761.477V319.71C762.565 319.582 762.565 319.47 762.565 317.982V314.558C762.517 313.71 762.501 313.406 761.525 313.406V313.022L763.973 312.078ZM764.117 309.374C764.117 309.95 763.637 310.43 763.061 310.43C762.469 310.43 761.989 309.966 761.989 309.374C761.989 308.782 762.453 308.302 763.045 308.302C763.637 308.302 764.117 308.782 764.117 309.374ZM769.456 320.366C767.408 320.366 765.92 318.382 765.92 316.414C765.92 314.334 767.296 312.19 769.552 312.19C771.776 312.19 773.104 314.366 773.104 316.398C773.104 318.446 771.584 320.366 769.456 320.366ZM769.456 319.838C771.12 319.838 771.488 317.326 771.488 316.094C771.488 314.926 771.12 312.718 769.552 312.718C767.936 312.718 767.536 314.83 767.536 316.062C767.536 317.198 767.904 319.838 769.456 319.838ZM776.614 314.094V317.998C776.614 319.502 776.614 319.598 777.686 319.726V320.19H774.118V319.726C775.206 319.598 775.206 319.502 775.206 317.998V314.558C775.158 313.71 775.142 313.406 774.166 313.406V313.022L776.614 312.078V313.438C777.222 312.782 778.23 312.19 779.126 312.19C779.686 312.19 780.246 312.414 780.646 312.814C781.174 313.406 781.19 314.142 781.19 314.894V317.998C781.19 319.502 781.19 319.598 782.262 319.726V320.19H778.678V319.726C779.782 319.598 779.782 319.502 779.782 317.998V315.198C779.782 314.238 779.718 313.038 778.454 313.038C777.75 313.038 777.094 313.614 776.614 314.094ZM783.649 322.718L783.457 322.446C783.905 322.03 784.641 321.342 784.641 320.782C784.641 320.526 784.497 320.446 784.289 320.334C783.857 320.142 783.585 319.854 783.585 319.342C783.585 318.782 784.033 318.35 784.577 318.35C785.393 318.35 785.761 319.134 785.761 319.854C785.761 321.102 784.625 322.11 783.649 322.718ZM676.161 332.094V335.998C676.161 337.502 676.161 337.598 677.233 337.726V338.19H673.665V337.726C674.753 337.598 674.753 337.502 674.753 335.998V332.558C674.705 331.71 674.689 331.406 673.713 331.406V331.022L676.161 330.078V331.438C676.769 330.782 677.777 330.19 678.673 330.19C679.233 330.19 679.793 330.414 680.193 330.814C680.721 331.406 680.737 332.142 680.737 332.894V335.998C680.737 337.502 680.737 337.598 681.809 337.726V338.19H678.225V337.726C679.329 337.598 679.329 337.502 679.329 335.998V333.198C679.329 332.238 679.265 331.038 678.001 331.038C677.297 331.038 676.641 331.614 676.161 332.094ZM687.116 336.606V333.998C685.98 334.19 684.22 334.958 684.22 336.286C684.22 337.038 684.748 337.518 685.388 337.518C685.98 337.518 686.716 337.054 687.116 336.606ZM687.116 333.47V332.414C687.116 331.63 686.956 330.718 685.996 330.718C685.196 330.718 684.86 331.246 684.684 331.934C684.54 332.43 684.332 332.734 683.756 332.734C683.308 332.734 683.004 332.462 683.004 332.03C683.004 330.702 684.876 330.19 685.916 330.19C686.588 330.19 687.404 330.302 687.948 330.75C688.524 331.23 688.524 331.902 688.524 332.574V336.222C688.524 336.606 688.524 337.31 689.004 337.31C689.276 337.31 689.468 337.118 689.66 336.91L689.868 337.246C689.468 337.838 688.988 338.366 688.236 338.366C687.58 338.366 687.212 337.854 687.148 337.246C686.412 337.838 685.548 338.366 684.588 338.366C683.468 338.366 682.7 337.598 682.7 336.462C682.7 334.334 685.484 333.79 687.116 333.47ZM692.534 332.67V335.998C692.534 337.502 692.534 337.598 693.606 337.726V338.19H690.07V337.726C691.126 337.598 691.126 337.502 691.126 335.998V332.558C691.078 331.71 691.062 331.406 690.086 331.406V331.022L692.534 330.078V331.966C693.142 331.214 694.102 330.078 695.158 330.078C695.686 330.078 696.15 330.446 696.15 331.006C696.15 331.502 695.814 331.902 695.286 331.902C694.726 331.902 694.518 331.486 694.006 331.486C693.446 331.486 692.806 332.222 692.534 332.67ZM699.613 332.67V335.998C699.613 337.502 699.613 337.598 700.685 337.726V338.19H697.149V337.726C698.205 337.598 698.205 337.502 698.205 335.998V332.558C698.157 331.71 698.141 331.406 697.165 331.406V331.022L699.613 330.078V331.966C700.221 331.214 701.181 330.078 702.237 330.078C702.765 330.078 703.229 330.446 703.229 331.006C703.229 331.502 702.893 331.902 702.365 331.902C701.805 331.902 701.597 331.486 701.085 331.486C700.525 331.486 699.885 332.222 699.613 332.67ZM708.085 336.606V333.998C706.949 334.19 705.189 334.958 705.189 336.286C705.189 337.038 705.717 337.518 706.357 337.518C706.949 337.518 707.685 337.054 708.085 336.606ZM708.085 333.47V332.414C708.085 331.63 707.925 330.718 706.965 330.718C706.165 330.718 705.829 331.246 705.653 331.934C705.509 332.43 705.301 332.734 704.725 332.734C704.277 332.734 703.973 332.462 703.973 332.03C703.973 330.702 705.845 330.19 706.885 330.19C707.557 330.19 708.373 330.302 708.917 330.75C709.493 331.23 709.493 331.902 709.493 332.574V336.222C709.493 336.606 709.493 337.31 709.973 337.31C710.245 337.31 710.437 337.118 710.629 336.91L710.837 337.246C710.437 337.838 709.957 338.366 709.205 338.366C708.549 338.366 708.181 337.854 708.117 337.246C707.381 337.838 706.517 338.366 705.557 338.366C704.437 338.366 703.669 337.598 703.669 336.462C703.669 334.334 706.453 333.79 708.085 333.47ZM712.015 330.894H710.847V330.51C712.031 330.014 712.751 328.782 712.895 327.566H713.423V330.366H715.663V330.894H713.423V335.742C713.423 336.462 713.343 337.518 714.335 337.518C714.959 337.518 715.343 337.118 715.743 336.718L716.015 337.038C715.407 337.726 714.607 338.366 713.631 338.366C712.223 338.366 712.015 337.214 712.015 336.078V330.894ZM718.489 330.078V335.998C718.489 337.502 718.489 337.598 719.577 337.726V338.19H715.993V337.71C717.081 337.582 717.081 337.47 717.081 335.982V332.558C717.033 331.71 717.017 331.406 716.041 331.406V331.022L718.489 330.078ZM718.633 327.374C718.633 327.95 718.153 328.43 717.577 328.43C716.985 328.43 716.505 327.966 716.505 327.374C716.505 326.782 716.969 326.302 717.561 326.302C718.153 326.302 718.633 326.782 718.633 327.374ZM723.908 336.206L725.22 332.734C725.332 332.414 725.54 331.966 725.54 331.63C725.54 331.022 725.012 330.83 724.484 330.83V330.366H727.652V330.83C727.412 330.846 727.156 330.846 726.964 331.006C726.66 331.278 726.34 332.142 726.196 332.526L723.94 338.19H723.172L720.756 332.062C720.516 331.486 720.356 330.846 719.62 330.83V330.366H723.172V330.83C722.756 330.83 722.148 330.894 722.148 331.438C722.148 331.678 722.308 332.094 722.388 332.302L723.908 336.206ZM734.974 333.79H729.55C729.55 335.358 730.014 337.678 732.014 337.678C733.086 337.678 734.014 337.086 734.638 336.222L734.91 336.478C734.238 337.582 733.118 338.366 731.806 338.366C729.566 338.366 727.934 336.542 727.934 334.35C727.934 332.302 729.358 330.19 731.598 330.19C733.598 330.19 734.974 331.902 734.974 333.79ZM729.63 333.182H733.358C733.454 332.078 732.974 330.718 731.582 330.718C730.222 330.718 729.662 332.094 729.63 333.182ZM736.462 340.718L736.27 340.446C736.718 340.03 737.454 339.342 737.454 338.782C737.454 338.526 737.31 338.446 737.102 338.334C736.67 338.142 736.398 337.854 736.398 337.342C736.398 336.782 736.846 336.35 737.39 336.35C738.206 336.35 738.574 337.134 738.574 337.854C738.574 339.102 737.438 340.11 736.462 340.718ZM748.382 336.606V333.998C747.246 334.19 745.486 334.958 745.486 336.286C745.486 337.038 746.014 337.518 746.654 337.518C747.246 337.518 747.982 337.054 748.382 336.606ZM748.382 333.47V332.414C748.382 331.63 748.222 330.718 747.262 330.718C746.462 330.718 746.126 331.246 745.95 331.934C745.806 332.43 745.598 332.734 745.022 332.734C744.574 332.734 744.27 332.462 744.27 332.03C744.27 330.702 746.142 330.19 747.182 330.19C747.854 330.19 748.67 330.302 749.214 330.75C749.79 331.23 749.79 331.902 749.79 332.574V336.222C749.79 336.606 749.79 337.31 750.27 337.31C750.542 337.31 750.734 337.118 750.926 336.91L751.134 337.246C750.734 337.838 750.254 338.366 749.502 338.366C748.846 338.366 748.478 337.854 748.414 337.246C747.678 337.838 746.814 338.366 745.854 338.366C744.734 338.366 743.966 337.598 743.966 336.462C743.966 334.334 746.75 333.79 748.382 333.47ZM753.848 332.094V335.998C753.848 337.502 753.848 337.598 754.92 337.726V338.19H751.352V337.726C752.44 337.598 752.44 337.502 752.44 335.998V332.558C752.392 331.71 752.376 331.406 751.4 331.406V331.022L753.848 330.078V331.438C754.456 330.782 755.464 330.19 756.36 330.19C756.92 330.19 757.48 330.414 757.88 330.814C758.408 331.406 758.424 332.142 758.424 332.894V335.998C758.424 337.502 758.424 337.598 759.496 337.726V338.19H755.912V337.726C757.016 337.598 757.016 337.502 757.016 335.998V333.198C757.016 332.238 756.952 331.038 755.688 331.038C754.984 331.038 754.328 331.614 753.848 332.094ZM765.796 336.686V331.886C765.364 331.422 764.676 330.878 764.02 330.878C762.452 330.878 762.02 333.086 762.02 334.286C762.02 335.534 762.42 337.678 764.02 337.678C764.676 337.678 765.364 337.15 765.796 336.686ZM765.796 331.23V328.702C765.796 327.31 765.572 327.374 764.436 327.294V326.83L767.204 325.918V335.998C767.204 337.502 767.204 337.598 768.292 337.726V338.19H765.796V337.278C765.204 337.87 764.436 338.366 763.604 338.366C761.46 338.366 760.5 336.158 760.5 334.318C760.5 331.198 762.356 330.19 763.492 330.19C764.404 330.19 765.14 330.67 765.796 331.23ZM661.04 349.838V354.75C661.504 355.182 662.08 355.678 662.752 355.678C664.496 355.678 664.832 353.486 664.832 352.126C664.832 350.766 664.416 348.878 662.72 348.878C662.16 348.878 661.392 349.422 661.04 349.838ZM661.04 355.39V356.798C661.04 358.302 661.04 358.398 662.112 358.542V359.006H658.544V358.542C659.632 358.398 659.632 358.302 659.632 356.798V350.558C659.6 349.71 659.536 349.406 658.576 349.406V349.022L661.04 348.078V349.214C661.712 348.638 662.416 348.19 663.312 348.19C665.312 348.19 666.368 350.334 666.352 352.078C666.368 354.062 665.376 356.366 663.088 356.366C662.304 356.366 661.568 355.934 661.04 355.39ZM669.558 350.67V353.998C669.558 355.502 669.558 355.598 670.63 355.726V356.19H667.094V355.726C668.15 355.598 668.15 355.502 668.15 353.998V350.558C668.102 349.71 668.086 349.406 667.11 349.406V349.022L669.558 348.078V349.966C670.166 349.214 671.126 348.078 672.182 348.078C672.71 348.078 673.174 348.446 673.174 349.006C673.174 349.502 672.838 349.902 672.31 349.902C671.75 349.902 671.542 349.486 671.03 349.486C670.47 349.486 669.83 350.222 669.558 350.67ZM677.37 356.366C675.322 356.366 673.834 354.382 673.834 352.414C673.834 350.334 675.21 348.19 677.466 348.19C679.69 348.19 681.018 350.366 681.018 352.398C681.018 354.446 679.498 356.366 677.37 356.366ZM677.37 355.838C679.034 355.838 679.402 353.326 679.402 352.094C679.402 350.926 679.034 348.718 677.466 348.718C675.85 348.718 675.45 350.83 675.45 352.062C675.45 353.198 675.818 355.838 677.37 355.838ZM685.744 354.206L687.056 350.734C687.168 350.414 687.376 349.966 687.376 349.63C687.376 349.022 686.848 348.83 686.32 348.83V348.366H689.488V348.83C689.248 348.846 688.992 348.846 688.8 349.006C688.496 349.278 688.176 350.142 688.032 350.526L685.776 356.19H685.008L682.592 350.062C682.352 349.486 682.192 348.846 681.456 348.83V348.366H685.008V348.83C684.592 348.83 683.984 348.894 683.984 349.438C683.984 349.678 684.144 350.094 684.224 350.302L685.744 354.206ZM693.386 356.366C691.338 356.366 689.85 354.382 689.85 352.414C689.85 350.334 691.226 348.19 693.482 348.19C695.706 348.19 697.034 350.366 697.034 352.398C697.034 354.446 695.514 356.366 693.386 356.366ZM693.386 355.838C695.05 355.838 695.418 353.326 695.418 352.094C695.418 350.926 695.05 348.718 693.482 348.718C691.866 348.718 691.466 350.83 691.466 352.062C691.466 353.198 691.834 355.838 693.386 355.838ZM704.863 354.062L705.103 354.286C704.335 355.454 703.183 356.366 701.727 356.366C699.631 356.366 698.143 354.462 698.143 352.478C698.143 350.11 699.759 348.19 702.223 348.19C703.135 348.19 704.847 348.75 704.847 349.87C704.847 350.334 704.447 350.67 703.983 350.67C702.799 350.67 703.263 348.718 701.727 348.718C700.079 348.718 699.759 350.894 699.759 352.126C699.759 353.646 700.607 355.518 702.383 355.518C703.471 355.518 704.175 354.814 704.863 354.062ZM710.233 354.606V351.998C709.097 352.19 707.337 352.958 707.337 354.286C707.337 355.038 707.865 355.518 708.505 355.518C709.097 355.518 709.833 355.054 710.233 354.606ZM710.233 351.47V350.414C710.233 349.63 710.073 348.718 709.113 348.718C708.313 348.718 707.977 349.246 707.801 349.934C707.657 350.43 707.449 350.734 706.873 350.734C706.425 350.734 706.121 350.462 706.121 350.03C706.121 348.702 707.993 348.19 709.033 348.19C709.705 348.19 710.521 348.302 711.065 348.75C711.641 349.23 711.641 349.902 711.641 350.574V354.222C711.641 354.606 711.641 355.31 712.121 355.31C712.393 355.31 712.585 355.118 712.777 354.91L712.985 355.246C712.585 355.838 712.105 356.366 711.353 356.366C710.697 356.366 710.329 355.854 710.265 355.246C709.529 355.838 708.665 356.366 707.705 356.366C706.585 356.366 705.817 355.598 705.817 354.462C705.817 352.334 708.601 351.79 710.233 351.47ZM714.164 348.894H712.996V348.51C714.18 348.014 714.9 346.782 715.044 345.566H715.572V348.366H717.812V348.894H715.572V353.742C715.572 354.462 715.492 355.518 716.484 355.518C717.108 355.518 717.492 355.118 717.892 354.718L718.164 355.038C717.556 355.726 716.756 356.366 715.78 356.366C714.372 356.366 714.164 355.214 714.164 354.078V348.894ZM720.637 348.078V353.998C720.637 355.502 720.637 355.598 721.725 355.726V356.19H718.141V355.71C719.229 355.582 719.229 355.47 719.229 353.982V350.558C719.181 349.71 719.165 349.406 718.189 349.406V349.022L720.637 348.078ZM720.781 345.374C720.781 345.95 720.301 346.43 719.725 346.43C719.133 346.43 718.653 345.966 718.653 345.374C718.653 344.782 719.117 344.302 719.709 344.302C720.301 344.302 720.781 344.782 720.781 345.374ZM726.056 354.206L727.368 350.734C727.48 350.414 727.688 349.966 727.688 349.63C727.688 349.022 727.16 348.83 726.632 348.83V348.366H729.8V348.83C729.56 348.846 729.304 348.846 729.112 349.006C728.808 349.278 728.488 350.142 728.344 350.526L726.088 356.19H725.32L722.904 350.062C722.664 349.486 722.504 348.846 721.768 348.83V348.366H725.32V348.83C724.904 348.83 724.296 348.894 724.296 349.438C724.296 349.678 724.456 350.094 724.536 350.302L726.056 354.206ZM737.122 351.79H731.698C731.698 353.358 732.162 355.678 734.162 355.678C735.234 355.678 736.162 355.086 736.786 354.222L737.058 354.478C736.386 355.582 735.266 356.366 733.954 356.366C731.714 356.366 730.082 354.542 730.082 352.35C730.082 350.302 731.506 348.19 733.746 348.19C735.746 348.19 737.122 349.902 737.122 351.79ZM731.778 351.182H735.506C735.602 350.078 735.122 348.718 733.73 348.718C732.37 348.718 731.81 350.094 731.778 351.182ZM744.29 349.838V354.75C744.754 355.182 745.33 355.678 746.002 355.678C747.746 355.678 748.082 353.486 748.082 352.126C748.082 350.766 747.666 348.878 745.97 348.878C745.41 348.878 744.642 349.422 744.29 349.838ZM744.29 355.39V356.798C744.29 358.302 744.29 358.398 745.362 358.542V359.006H741.794V358.542C742.882 358.398 742.882 358.302 742.882 356.798V350.558C742.85 349.71 742.786 349.406 741.826 349.406V349.022L744.29 348.078V349.214C744.962 348.638 745.666 348.19 746.562 348.19C748.562 348.19 749.618 350.334 749.602 352.078C749.618 354.062 748.626 356.366 746.338 356.366C745.554 356.366 744.818 355.934 744.29 355.39ZM755.928 356.19V355.054C755.256 355.726 754.392 356.366 753.4 356.366C752.744 356.366 752.056 356.126 751.672 355.534C751.272 354.91 751.272 354.142 751.272 353.406V350.558C751.224 349.71 751.208 349.406 750.232 349.406V349.022L752.68 348.078V353.822C752.68 354.67 753.016 355.518 753.992 355.518C754.776 355.518 755.4 354.878 755.912 354.382V350.558C755.864 349.71 755.848 349.406 754.872 349.406V349.022L757.32 348.078V353.998C757.32 355.502 757.32 355.598 758.424 355.726V356.19H755.928ZM761.748 349.902V354.718C762.212 355.086 762.692 355.518 763.348 355.518C764.948 355.518 765.508 353.422 765.508 352.142C765.508 350.862 764.868 349.038 763.3 349.038C762.676 349.038 762.148 349.47 761.748 349.902ZM761.62 355.182L760.516 356.27H760.324V346.702C760.324 345.31 760.1 345.374 758.964 345.294V344.83L761.732 343.918V349.246C762.292 348.686 763.156 348.19 763.972 348.19C765.972 348.19 767.028 350.334 767.028 352.078C767.028 353.918 765.892 356.366 763.764 356.366C762.9 356.366 762.164 355.79 761.62 355.182ZM769.231 353.998V346.702C769.231 345.31 769.007 345.374 767.871 345.294V344.83L770.639 343.918V353.998C770.639 355.502 770.639 355.598 771.743 355.726V356.19H768.159V355.726C769.231 355.598 769.231 355.502 769.231 353.998ZM774.746 348.078V353.998C774.746 355.502 774.746 355.598 775.834 355.726V356.19H772.25V355.71C773.338 355.582 773.338 355.47 773.338 353.982V350.558C773.29 349.71 773.274 349.406 772.298 349.406V349.022L774.746 348.078ZM774.89 345.374C774.89 345.95 774.41 346.43 773.834 346.43C773.242 346.43 772.762 345.966 772.762 345.374C772.762 344.782 773.226 344.302 773.818 344.302C774.41 344.302 774.89 344.782 774.89 345.374ZM783.27 354.062L783.51 354.286C782.742 355.454 781.59 356.366 780.134 356.366C778.038 356.366 776.55 354.462 776.55 352.478C776.55 350.11 778.166 348.19 780.63 348.19C781.542 348.19 783.254 348.75 783.254 349.87C783.254 350.334 782.854 350.67 782.39 350.67C781.206 350.67 781.67 348.718 780.134 348.718C778.486 348.718 778.166 350.894 778.166 352.126C778.166 353.646 779.014 355.518 780.79 355.518C781.878 355.518 782.582 354.814 783.27 354.062ZM676.02 366.078V371.998C676.02 373.502 676.02 373.598 677.108 373.726V374.19H673.524V373.71C674.612 373.582 674.612 373.47 674.612 371.982V368.558C674.564 367.71 674.548 367.406 673.572 367.406V367.022L676.02 366.078ZM676.164 363.374C676.164 363.95 675.684 364.43 675.108 364.43C674.516 364.43 674.036 363.966 674.036 363.374C674.036 362.782 674.5 362.302 675.092 362.302C675.684 362.302 676.164 362.782 676.164 363.374ZM680.223 368.094V371.998C680.223 373.502 680.223 373.598 681.295 373.726V374.19H677.727V373.726C678.815 373.598 678.815 373.502 678.815 371.998V368.558C678.767 367.71 678.751 367.406 677.775 367.406V367.022L680.223 366.078V367.438C680.831 366.782 681.839 366.19 682.735 366.19C683.295 366.19 683.855 366.414 684.255 366.814C684.783 367.406 684.799 368.142 684.799 368.894V371.998C684.799 373.502 684.799 373.598 685.871 373.726V374.19H682.287V373.726C683.391 373.598 683.391 373.502 683.391 371.998V369.198C683.391 368.238 683.327 367.038 682.063 367.038C681.359 367.038 680.703 367.614 680.223 368.094ZM687.531 366.894H686.363V366.51C687.547 366.014 688.267 364.782 688.411 363.566H688.939V366.366H691.179V366.894H688.939V371.742C688.939 372.462 688.859 373.518 689.851 373.518C690.475 373.518 690.859 373.118 691.259 372.718L691.531 373.038C690.923 373.726 690.123 374.366 689.147 374.366C687.739 374.366 687.531 373.214 687.531 372.078V366.894ZM698.708 369.79H693.284C693.284 371.358 693.748 373.678 695.748 373.678C696.82 373.678 697.748 373.086 698.372 372.222L698.644 372.478C697.972 373.582 696.852 374.366 695.54 374.366C693.3 374.366 691.668 372.542 691.668 370.35C691.668 368.302 693.092 366.19 695.332 366.19C697.332 366.19 698.708 367.902 698.708 369.79ZM693.364 369.182H697.092C697.188 368.078 696.708 366.718 695.316 366.718C693.956 366.718 693.396 368.094 693.364 369.182ZM701.956 368.67V371.998C701.956 373.502 701.956 373.598 703.028 373.726V374.19H699.492V373.726C700.548 373.598 700.548 373.502 700.548 371.998V368.558C700.5 367.71 700.484 367.406 699.508 367.406V367.022L701.956 366.078V367.966C702.564 367.214 703.524 366.078 704.58 366.078C705.108 366.078 705.572 366.446 705.572 367.006C705.572 367.502 705.236 367.902 704.708 367.902C704.148 367.902 703.94 367.486 703.428 367.486C702.868 367.486 702.228 368.222 701.956 368.67ZM710.877 372.206L712.189 368.734C712.301 368.414 712.509 367.966 712.509 367.63C712.509 367.022 711.981 366.83 711.453 366.83V366.366H714.621V366.83C714.381 366.846 714.125 366.846 713.933 367.006C713.629 367.278 713.309 368.142 713.165 368.526L710.909 374.19H710.141L707.725 368.062C707.485 367.486 707.325 366.846 706.588 366.83V366.366H710.141V366.83C709.725 366.83 709.117 366.894 709.117 367.438C709.117 367.678 709.277 368.094 709.357 368.302L710.877 372.206ZM721.943 369.79H716.519C716.519 371.358 716.983 373.678 718.983 373.678C720.055 373.678 720.983 373.086 721.607 372.222L721.879 372.478C721.207 373.582 720.087 374.366 718.775 374.366C716.535 374.366 714.903 372.542 714.903 370.35C714.903 368.302 716.327 366.19 718.567 366.19C720.567 366.19 721.943 367.902 721.943 369.79ZM716.599 369.182H720.327C720.423 368.078 719.943 366.718 718.551 366.718C717.191 366.718 716.631 368.094 716.599 369.182ZM725.239 368.094V371.998C725.239 373.502 725.239 373.598 726.311 373.726V374.19H722.743V373.726C723.831 373.598 723.831 373.502 723.831 371.998V368.558C723.783 367.71 723.767 367.406 722.791 367.406V367.022L725.239 366.078V367.438C725.847 366.782 726.855 366.19 727.751 366.19C728.311 366.19 728.871 366.414 729.271 366.814C729.799 367.406 729.815 368.142 729.815 368.894V371.998C729.815 373.502 729.815 373.598 730.887 373.726V374.19H727.303V373.726C728.407 373.598 728.407 373.502 728.407 371.998V369.198C728.407 368.238 728.343 367.038 727.079 367.038C726.375 367.038 725.719 367.614 725.239 368.094ZM732.546 366.894H731.378V366.51C732.562 366.014 733.282 364.782 733.426 363.566H733.954V366.366H736.194V366.894H733.954V371.742C733.954 372.462 733.874 373.518 734.866 373.518C735.49 373.518 735.874 373.118 736.274 372.718L736.546 373.038C735.938 373.726 735.138 374.366 734.162 374.366C732.754 374.366 732.546 373.214 732.546 372.078V366.894ZM739.02 366.078V371.998C739.02 373.502 739.02 373.598 740.108 373.726V374.19H736.524V373.71C737.612 373.582 737.612 373.47 737.612 371.982V368.558C737.564 367.71 737.548 367.406 736.572 367.406V367.022L739.02 366.078ZM739.164 363.374C739.164 363.95 738.684 364.43 738.108 364.43C737.516 364.43 737.036 363.966 737.036 363.374C737.036 362.782 737.5 362.302 738.092 362.302C738.684 362.302 739.164 362.782 739.164 363.374ZM744.503 374.366C742.455 374.366 740.967 372.382 740.967 370.414C740.967 368.334 742.343 366.19 744.599 366.19C746.823 366.19 748.151 368.366 748.151 370.398C748.151 372.446 746.631 374.366 744.503 374.366ZM744.503 373.838C746.167 373.838 746.535 371.326 746.535 370.094C746.535 368.926 746.167 366.718 744.599 366.718C742.983 366.718 742.583 368.83 742.583 370.062C742.583 371.198 742.951 373.838 744.503 373.838ZM751.661 368.094V371.998C751.661 373.502 751.661 373.598 752.733 373.726V374.19H749.165V373.726C750.253 373.598 750.253 373.502 750.253 371.998V368.558C750.205 367.71 750.189 367.406 749.213 367.406V367.022L751.661 366.078V367.438C752.269 366.782 753.277 366.19 754.173 366.19C754.733 366.19 755.293 366.414 755.693 366.814C756.221 367.406 756.237 368.142 756.237 368.894V371.998C756.237 373.502 756.237 373.598 757.309 373.726V374.19H753.725V373.726C754.829 373.598 754.829 373.502 754.829 371.998V369.198C754.829 368.238 754.765 367.038 753.501 367.038C752.797 367.038 752.141 367.614 751.661 368.094ZM763.224 366.078L764.152 368.686L763.768 368.894C762.984 367.886 762.024 366.718 760.728 366.718C760.104 366.718 759.464 367.15 759.464 367.806C759.464 369.758 764.488 369.022 764.488 371.95C764.488 373.326 763.16 374.366 761.88 374.366C761.48 374.366 761.192 374.254 760.824 374.142C760.632 374.078 760.44 373.998 760.232 373.998C759.896 373.998 759.576 374.142 759.304 374.366L758.312 371.646L758.664 371.47C759.272 372.478 760.776 373.838 761.976 373.838C762.712 373.838 763.384 373.278 763.384 372.526C763.384 370.462 758.408 371.358 758.408 368.462C758.408 367.102 759.656 366.19 760.92 366.19C761.496 366.19 762.056 366.446 762.504 366.446C762.808 366.446 763.032 366.302 763.224 366.078ZM765.82 373.374C765.82 372.814 766.252 372.35 766.812 372.35C767.388 372.35 767.836 372.814 767.836 373.39C767.836 373.918 767.372 374.366 766.812 374.366C766.284 374.366 765.82 373.918 765.82 373.374Z" fill="black"/>
<rect x="181" y="451.19" width="90" height="90" stroke="black"/>
<rect x="271" y="451.19" width="90" height="90" stroke="black"/>
<rect x="361" y="451.19" width="90" height="90" stroke="black"/>
<rect x="451" y="451.19" width="90" height="90" stroke="black"/>
<rect x="541" y="451.19" width="90" height="90" stroke="black"/>
<rect x="631" y="451.19" width="90" height="90" stroke="black"/>
<rect x="721" y="451.19" width="90" height="90" stroke="black"/>
<rect x="811" y="451.19" width="90" height="90" stroke="black"/>
<rect x="901" y="451.19" width="90" height="90" stroke="black"/>
<rect x="991" y="451.19" width="90" height="90" stroke="black"/>
<rect x="1081" y="451.19" width="90" height="90" stroke="black"/>
<rect x="1171" y="451.19" width="90" height="90" stroke="black"/>
<rect x="1261" y="451.19" width="90" height="90" stroke="black"/>
<rect x="1351" y="451.19" width="90" height="90" stroke="black"/>
<rect x="1" y="541.19" width="90" height="90" stroke="black"/>
<rect x="91" y="541.19" width="90" height="90" stroke="black"/>
<rect x="181" y="541.19" width="90" height="90" stroke="black"/>
<rect x="271" y="541.19" width="90" height="90" stroke="black"/>
<rect x="361" y="541.19" width="90" height="90" stroke="black"/>
<rect x="451" y="541.19" width="90" height="90" stroke="black"/>
<rect x="541" y="541.19" width="90" height="90" stroke="black"/>
<rect x="631" y="541.19" width="90" height="90" stroke="black"/>
<rect x="721" y="541.19" width="90" height="90" stroke="black"/>
<rect x="811" y="541.19" width="90" height="90" stroke="black"/>
<rect x="901" y="541.19" width="90" height="90" stroke="black"/>
<rect x="991" y="541.19" width="90" height="90" stroke="black"/>
<rect x="1081" y="541.19" width="90" height="90" stroke="black"/>
<rect x="1171" y="541.19" width="90" height="90" stroke="black"/>
<rect x="1261" y="541.19" width="90" height="90" stroke="black"/>
<rect x="1351" y="541.19" width="90" height="90" stroke="black"/>
<defs>
<clipPath id="clip0_790_2834">
<rect x="991" y="1.19" width="90" height="90" fill="white"/>
</clipPath>
<clipPath id="clip1_790_2834">
<rect x="1081" y="1.19" width="90" height="90" fill="white"/>
</clipPath>
<clipPath id="clip2_790_2834">
<rect x="1171" y="1.19" width="90" height="90" fill="white"/>
</clipPath>
<clipPath id="clip3_790_2834">
<rect x="271" y="91.19" width="90" height="90" fill="white"/>
</clipPath>
<clipPath id="clip4_790_2834">
<rect x="361" y="91.19" width="90" height="90" fill="white"/>
</clipPath>
<clipPath id="clip5_790_2834">
<rect x="991" y="91.19" width="90" height="90" fill="white"/>
</clipPath>
<clipPath id="clip6_790_2834">
<rect x="1081" y="91.19" width="90" height="90" fill="white"/>
</clipPath>
<clipPath id="clip7_790_2834">
<rect x="1171" y="91.19" width="90" height="90" fill="white"/>
</clipPath>
<clipPath id="clip8_790_2834">
<rect x="991" y="181.19" width="90" height="90" fill="white"/>
</clipPath>
<clipPath id="clip9_790_2834">
<rect x="1081" y="181.19" width="90" height="90" fill="white"/>
</clipPath>
<clipPath id="clip10_790_2834">
<rect x="1171" y="181.19" width="90" height="90" fill="white"/>
</clipPath>
<clipPath id="clip11_790_2834">
<rect x="811" y="361.19" width="90" height="90" fill="white"/>
</clipPath>
<clipPath id="clip12_790_2834">
<rect x="991" y="451.19" width="90" height="90" transform="rotate(-180 991 451.19)" fill="white"/>
</clipPath>
</defs>
</svg>
