<svg width="1440" height="176" viewBox="0 0 1440 176" fill="none" xmlns="http://www.w3.org/2000/svg">
<path d="M196.987 77.3605C193.106 77.3801 191.314 81.2613 187.951 82.2426C180.959 86.4607 174.271 91.2011 166.689 94.3647C164.443 95.3021 162.046 97.1768 159.713 94.9603C157.067 92.451 158.365 89.5217 159.6 86.8171C160.635 84.5469 161.846 82.3549 162.979 80.1238C175.428 64.1253 189.469 49.3327 199.443 31.4595C203.627 23.9558 201.371 18.5172 193.023 17.1844C185.251 15.9443 177.464 15.8711 169.614 16.7401C163.95 17.365 158.39 19.147 152.609 18.5318C149.939 18.2487 146.59 17.2479 148.801 14.0452C152.951 8.04031 148.084 8.58221 145.067 8.4504C133.008 7.9329 120.915 7.43981 109.154 11.0916C102.31 10.2812 95.9581 13.0542 89.3624 14.0062C84.6317 14.6897 79.9108 15.7051 75.1312 16.2373C63.5266 17.8337 52.0684 21.256 40 18.3414C51.7999 15.9199 63.5998 13.5033 75.3949 11.0818C86.8726 10.7645 97.9304 7.81573 109.12 5.68716C119.699 2.99715 130.523 2.90927 141.263 3.5537C147.137 3.90521 155.226 1.70829 156.061 11.985C156.242 14.1966 158.844 13.0542 160.406 12.7954C170.258 11.1795 180.178 10.745 190.128 11.2283C205.15 11.9557 210.354 21.1193 203.222 34.4229C196.479 47.0039 186.715 57.3637 177.659 68.2262C175.36 70.9846 172.714 73.4647 171.693 77.0676C171.371 77.2629 171.049 77.4582 170.727 77.6535C171.298 78.4492 171.615 77.6974 172.011 77.4435C173.011 78.2002 174.017 78.9521 175.028 79.7088C168.657 78.747 165.356 82.4525 163.037 87.6324C162.622 88.5551 161.841 89.5315 162.71 90.503C163.584 91.4745 164.692 90.9033 165.6 90.4737C171.435 87.6958 177.498 85.2841 182.087 80.4557C208.89 63.4565 234.603 44.9681 259.272 24.981C263.979 21.1681 267.547 16.0273 273.206 13.2934C275.207 12.3267 277.629 10.5936 276.726 7.90849C275.793 5.14037 272.84 5.63834 270.623 5.8922C259.053 7.20547 247.502 8.66033 235.956 10.1445C233.935 10.4032 231.967 11.1014 228.73 10.0127C241.077 6.01425 252.652 4.07608 264.276 2.34784C269.09 1.63017 273.904 0.912512 278.732 0.2632C281.271 -0.0785438 284.146 -0.517928 285.675 2.0305C287.149 4.49106 284.971 6.33159 283.6 8.18677C275.681 18.898 265.023 26.6409 254.595 34.5401C235.521 48.9861 216.203 63.1001 196.987 77.3557V77.3605Z" fill="black"/>
<path d="M1008.79 15.416C1007.25 17.576 1006.48 20.504 1006.48 23.768C1006.48 27.032 1007.25 29.96 1008.79 32.12C1010.51 34.664 1013.15 36.104 1016.18 36.104C1020.16 36.104 1023.09 33.704 1024.19 29.624L1029.95 31.592C1027.84 37.928 1022.9 41.528 1016.18 41.528C1011.52 41.528 1007.35 39.608 1004.47 36.152C1001.78 32.936 1000.34 28.616 1000.34 23.768C1000.34 18.92 1001.78 14.6 1004.47 11.384C1007.35 7.928 1011.52 6.008 1016.18 6.008C1022.9 6.008 1027.84 9.608 1029.95 15.944L1024.19 17.912C1023.09 13.832 1020.16 11.432 1016.18 11.432C1013.15 11.432 1010.51 12.872 1008.79 15.416ZM1046.99 41.48C1038.31 41.48 1033.12 36.296 1033.12 27.32V6.536H1039.27V27.128C1039.27 32.936 1042 36.056 1046.99 36.056C1052.03 36.056 1054.77 32.936 1054.77 27.128V6.536H1060.91V27.32C1060.91 36.344 1055.78 41.48 1046.99 41.48ZM1078.16 27.656H1072.59V41H1066.45V6.536H1080.23C1088.15 6.536 1092.71 10.376 1092.71 17.096C1092.71 22.424 1089.87 25.976 1084.69 27.176L1093.57 41H1086.56L1078.16 27.656ZM1072.59 11.816V22.376H1079.89C1084.26 22.376 1086.66 20.504 1086.66 17.096C1086.66 13.64 1084.31 11.816 1079.89 11.816H1072.59ZM1094.31 41L1107.37 6.536H1114.33L1127.38 41H1121.19L1118.22 33.128H1103.34L1100.41 41H1094.31ZM1116.2 27.752L1110.73 13.352L1105.35 27.752H1116.2ZM1152.34 6.536V11.912H1141.26V41H1135.11V11.912H1124.02V6.536H1152.34ZM1155.85 41V6.536H1179.18V11.912H1161.9V20.552H1176.45V25.928H1161.9V35.624H1179.18V41H1155.85ZM1195.39 41H1183.87V6.536H1195.39C1200.63 6.536 1204.99 8.12 1208.02 11.192C1211.09 14.216 1212.72 18.584 1212.72 23.768C1212.72 28.952 1211.09 33.32 1208.02 36.344C1204.99 39.416 1200.63 41 1195.39 41ZM1189.87 11.816V35.72H1195.39C1202.35 35.72 1206.67 31.112 1206.67 23.768C1206.67 16.328 1202.4 11.816 1195.35 11.816H1189.87ZM1236.54 31.832L1242.93 6.536H1248.35L1254.78 31.832L1261.31 6.536H1267.45L1258.14 41H1252.09L1245.57 16.712L1239.09 41H1233.04L1223.68 6.536H1230.01L1236.54 31.832ZM1271.93 36.248C1269.19 33.032 1267.71 28.712 1267.71 23.768C1267.71 18.824 1269.19 14.504 1271.93 11.288C1274.86 7.88 1278.99 6.008 1283.74 6.008C1288.49 6.008 1292.62 7.88 1295.55 11.288C1298.28 14.504 1299.77 18.824 1299.77 23.768C1299.77 28.712 1298.28 33.032 1295.55 36.248C1292.62 39.656 1288.49 41.528 1283.74 41.528C1278.99 41.528 1274.86 39.656 1271.93 36.248ZM1283.74 36.104C1286.67 36.104 1289.07 34.952 1290.89 32.696C1292.71 30.44 1293.63 27.464 1293.63 23.768C1293.63 20.072 1292.71 17.096 1290.89 14.84C1289.07 12.584 1286.67 11.432 1283.74 11.432C1280.81 11.432 1278.41 12.584 1276.59 14.84C1274.76 17.096 1273.85 20.072 1273.85 23.768C1273.85 27.464 1274.76 30.44 1276.59 32.696C1278.41 34.952 1280.81 36.104 1283.74 36.104ZM1315.78 27.656H1310.21V41H1304.06V6.536H1317.84C1325.76 6.536 1330.32 10.376 1330.32 17.096C1330.32 22.424 1327.49 25.976 1322.3 27.176L1331.18 41H1324.18L1315.78 27.656ZM1310.21 11.816V22.376H1317.5C1321.87 22.376 1324.27 20.504 1324.27 17.096C1324.27 13.64 1321.92 11.816 1317.5 11.816H1310.21ZM1334.94 6.536H1341.09V22.856L1355.39 6.536H1362.64L1349.25 21.464L1363.41 41H1356.16L1345.26 25.976L1341.09 30.584V41H1334.94V6.536ZM1376.49 41.528C1373.46 41.528 1370.63 40.856 1367.99 39.56C1365.35 38.216 1363.33 36.44 1362.04 34.28L1366.74 30.392C1369.19 34.184 1372.79 36.296 1376.68 36.296C1380.85 36.296 1383.49 34.328 1383.49 31.208C1383.49 29.864 1382.97 28.904 1381.81 28.184C1381.05 27.656 1380.04 27.272 1378.36 26.84L1376.44 26.408C1375.62 26.168 1375.05 26.024 1374.76 25.976C1370.73 25.016 1368.9 24.248 1367.37 23.24C1365.11 21.704 1364.01 19.496 1364.01 16.472C1364.01 13.256 1365.35 10.568 1367.89 8.648C1370.05 6.92 1373.13 6.008 1376.44 6.008C1381.86 6.008 1386.76 8.504 1389.25 12.392L1384.74 16.28C1382.49 12.824 1379.85 11.24 1376.25 11.24C1372.55 11.24 1370.01 13.112 1370.01 15.848C1370.01 17.528 1370.77 18.536 1372.69 19.304C1373.51 19.64 1374.47 19.928 1377.3 20.552C1379.89 21.128 1381.72 21.608 1382.77 21.992C1383.88 22.376 1384.79 22.808 1385.56 23.288C1388.25 24.872 1389.54 27.272 1389.54 30.584C1389.54 33.896 1388.1 36.728 1385.46 38.792C1383.11 40.52 1379.94 41.528 1376.49 41.528ZM921.527 89L934.583 54.536H941.543L954.599 89H948.407L945.431 81.128H930.551L927.623 89H921.527ZM943.415 75.752L937.943 61.352L932.567 75.752H943.415ZM980.326 54.536H986.23V89H980.854L963.766 63.704V89H957.862V54.536H964.198L980.326 78.68V54.536ZM1003.78 89H992.257V54.536H1003.78C1009.01 54.536 1013.38 56.12 1016.4 59.192C1019.47 62.216 1021.1 66.584 1021.1 71.768C1021.1 76.952 1019.47 81.32 1016.4 84.344C1013.38 87.416 1009.01 89 1003.78 89ZM998.257 59.816V83.72H1003.78C1010.74 83.72 1015.06 79.112 1015.06 71.768C1015.06 64.328 1010.78 59.816 1003.73 59.816H998.257ZM1048.62 75.656H1040.99V89H1034.84V54.536H1048.62C1056.54 54.536 1061.1 58.376 1061.1 65.096C1061.1 71.816 1056.49 75.656 1048.62 75.656ZM1040.99 59.816V70.376H1048.28C1052.65 70.376 1055.05 68.504 1055.05 65.096C1055.05 61.64 1052.7 59.816 1048.28 59.816H1040.99ZM1076.4 75.656H1070.84V89H1064.69V54.536H1078.47C1086.39 54.536 1090.95 58.376 1090.95 65.096C1090.95 70.424 1088.12 73.976 1082.93 75.176L1091.81 89H1084.8L1076.4 75.656ZM1070.84 59.816V70.376H1078.13C1082.5 70.376 1084.9 68.504 1084.9 65.096C1084.9 61.64 1082.55 59.816 1078.13 59.816H1070.84ZM1095.57 54.536H1101.72V89H1095.57V54.536ZM1130.21 54.536H1136.12V89H1130.74L1113.65 63.704V89H1107.75V54.536H1114.08L1130.21 78.68V54.536ZM1167.92 54.536V59.912H1156.83V89H1150.69V59.912H1139.6V54.536H1167.92ZM1180.84 89V54.536H1204.17V59.912H1186.89V68.552H1201.43V73.928H1186.89V83.624H1204.17V89H1180.84ZM1220.38 89H1208.86V54.536H1220.38C1225.61 54.536 1229.98 56.12 1233 59.192C1236.07 62.216 1237.71 66.584 1237.71 71.768C1237.71 76.952 1236.07 81.32 1233 84.344C1229.98 87.416 1225.61 89 1220.38 89ZM1214.86 59.816V83.72H1220.38C1227.34 83.72 1231.66 79.112 1231.66 71.768C1231.66 64.328 1227.39 59.816 1220.33 59.816H1214.86ZM1242.03 54.536H1248.18V89H1242.03V54.536ZM1279.99 54.536V59.912H1268.9V89H1262.76V59.912H1251.67V54.536H1279.99ZM1283.5 54.536H1289.64V89H1283.5V54.536ZM1298.12 84.248C1295.38 81.032 1293.9 76.712 1293.9 71.768C1293.9 66.824 1295.38 62.504 1298.12 59.288C1301.05 55.88 1305.18 54.008 1309.93 54.008C1314.68 54.008 1318.81 55.88 1321.74 59.288C1324.47 62.504 1325.96 66.824 1325.96 71.768C1325.96 76.712 1324.47 81.032 1321.74 84.248C1318.81 87.656 1314.68 89.528 1309.93 89.528C1305.18 89.528 1301.05 87.656 1298.12 84.248ZM1309.93 84.104C1312.86 84.104 1315.26 82.952 1317.08 80.696C1318.9 78.44 1319.82 75.464 1319.82 71.768C1319.82 68.072 1318.9 65.096 1317.08 62.84C1315.26 60.584 1312.86 59.432 1309.93 59.432C1307 59.432 1304.6 60.584 1302.78 62.84C1300.95 65.096 1300.04 68.072 1300.04 71.768C1300.04 75.464 1300.95 78.44 1302.78 80.696C1304.6 82.952 1307 84.104 1309.93 84.104ZM1352.72 54.536H1358.62V89H1353.25L1336.16 63.704V89H1330.26V54.536H1336.59L1352.72 78.68V54.536ZM1375.59 89.528C1372.57 89.528 1369.74 88.856 1367.1 87.56C1364.46 86.216 1362.44 84.44 1361.15 82.28L1365.85 78.392C1368.3 82.184 1371.9 84.296 1375.79 84.296C1379.96 84.296 1382.6 82.328 1382.6 79.208C1382.6 77.864 1382.07 76.904 1380.92 76.184C1380.15 75.656 1379.15 75.272 1377.47 74.84L1375.55 74.408C1374.73 74.168 1374.15 74.024 1373.87 73.976C1369.83 73.016 1368.01 72.248 1366.47 71.24C1364.22 69.704 1363.11 67.496 1363.11 64.472C1363.11 61.256 1364.46 58.568 1367 56.648C1369.16 54.92 1372.23 54.008 1375.55 54.008C1380.97 54.008 1385.87 56.504 1388.36 60.392L1383.85 64.28C1381.59 60.824 1378.95 59.24 1375.35 59.24C1371.66 59.24 1369.11 61.112 1369.11 63.848C1369.11 65.528 1369.88 66.536 1371.8 67.304C1372.62 67.64 1373.58 67.928 1376.41 68.552C1379 69.128 1380.83 69.608 1381.88 69.992C1382.99 70.376 1383.9 70.808 1384.67 71.288C1387.35 72.872 1388.65 75.272 1388.65 78.584C1388.65 81.896 1387.21 84.728 1384.57 86.792C1382.22 88.52 1379.05 89.528 1375.59 89.528ZM1398.1 89H1391.14V82.04H1398.1V89Z" fill="black"/>
</svg>
