<svg width="1440" height="276" viewBox="0 0 1440 276" fill="none" xmlns="http://www.w3.org/2000/svg">
<path d="M91.84 117.104V89.072H104.128V158H91.84V127.856H58.816V158H46.528V89.072H58.816V117.104H91.84ZM121.152 148.496C115.68 142.064 112.704 133.424 112.704 123.536C112.704 113.648 115.68 105.008 121.152 98.576C127.008 91.76 135.264 88.016 144.768 88.016C154.272 88.016 162.528 91.76 168.384 98.576C173.856 105.008 176.832 113.648 176.832 123.536C176.832 133.424 173.856 142.064 168.384 148.496C162.528 155.312 154.272 159.056 144.768 159.056C135.264 159.056 127.008 155.312 121.152 148.496ZM144.768 148.208C150.624 148.208 155.424 145.904 159.072 141.392C162.72 136.88 164.544 130.928 164.544 123.536C164.544 116.144 162.72 110.192 159.072 105.68C155.424 101.168 150.624 98.864 144.768 98.864C138.912 98.864 134.112 101.168 130.464 105.68C126.816 110.192 124.992 116.144 124.992 123.536C124.992 130.928 126.816 136.88 130.464 141.392C134.112 145.904 138.912 148.208 144.768 148.208ZM203.143 139.664L215.911 89.072H226.759L239.623 139.664L252.679 89.072H264.967L246.343 158H234.247L221.191 109.424L208.231 158H196.135L177.415 89.072H190.087L203.143 139.664ZM310.442 139.664L323.21 89.072H334.058L346.922 139.664L359.978 89.072H372.266L353.642 158H341.546L328.49 109.424L315.53 158H303.434L284.714 89.072H297.386L310.442 139.664ZM378.759 158V89.072H425.415V99.824H390.855V117.104H419.943V127.856H390.855V147.248H425.415V158H378.759ZM69.568 244H46.528V175.072H69.568C80.032 175.072 88.768 178.24 94.816 184.384C100.96 190.432 104.224 199.168 104.224 209.536C104.224 219.904 100.96 228.64 94.816 234.688C88.768 240.832 80.032 244 69.568 244ZM58.528 185.632V233.44H69.568C83.488 233.44 92.128 224.224 92.128 209.536C92.128 194.656 83.584 185.632 69.472 185.632H58.528ZM118.245 234.496C112.773 228.064 109.797 219.424 109.797 209.536C109.797 199.648 112.773 191.008 118.245 184.576C124.101 177.76 132.357 174.016 141.861 174.016C151.365 174.016 159.621 177.76 165.477 184.576C170.949 191.008 173.925 199.648 173.925 209.536C173.925 219.424 170.949 228.064 165.477 234.496C159.621 241.312 151.365 245.056 141.861 245.056C132.357 245.056 124.101 241.312 118.245 234.496ZM141.861 234.208C147.717 234.208 152.517 231.904 156.165 227.392C159.813 222.88 161.637 216.928 161.637 209.536C161.637 202.144 159.813 196.192 156.165 191.68C152.517 187.168 147.717 184.864 141.861 184.864C136.005 184.864 131.205 187.168 127.557 191.68C123.909 196.192 122.085 202.144 122.085 209.536C122.085 216.928 123.909 222.88 127.557 227.392C131.205 231.904 136.005 234.208 141.861 234.208ZM201.335 175.072H213.623V244H201.335V175.072ZM277.24 175.072V185.824H255.064V244H242.776V185.824H220.6V175.072H277.24ZM285.929 244H272.009V230.08H285.929V244Z" fill="black"/>
<path d="M1299.81 202C1299.81 174.386 1277.42 152 1249.81 152C1222.2 152 1199.81 174.386 1199.81 202C1199.81 229.614 1222.2 252 1249.81 252C1277.42 252 1299.81 229.614 1299.81 202Z" stroke="black" stroke-width="2" stroke-miterlimit="10"/>
<g clip-path="url(#clip0_452_2347)">
<path d="M1399 251L1300.52 152.52" stroke="black" stroke-width="2" stroke-miterlimit="10"/>
<path d="M1399 152.52V251H1300.52" stroke="black" stroke-width="2" stroke-miterlimit="10"/>
</g>
<defs>
<clipPath id="clip0_452_2347">
<rect width="100.19" height="100.19" fill="white" transform="translate(1299.81 151.81)"/>
</clipPath>
</defs>
</svg>
