<svg width="1440" height="205" viewBox="0 0 1440 205" fill="none" xmlns="http://www.w3.org/2000/svg">
<path d="M75.616 172.19H46.528V103.262H73.888C88.576 103.262 96.544 109.598 96.544 121.406C96.544 128.606 92.992 133.886 86.752 136.286C94.336 138.686 98.752 144.926 98.752 152.99C98.752 164.894 89.92 172.19 75.616 172.19ZM58.336 113.63V131.774H72.736C80.704 131.774 84.928 128.702 84.928 122.654C84.928 116.798 80.8 113.63 72.736 113.63H58.336ZM74.944 142.142H58.336V161.822H74.944C82.336 161.822 86.944 158.078 86.944 151.934C86.944 145.886 82.336 142.142 74.944 142.142ZM111.259 103.262L129.115 132.542L146.971 103.262H160.027L135.163 143.774V172.19H122.875V143.774L97.915 103.262H111.259ZM178.892 172.19L205.004 103.262H218.924L245.037 172.19H232.653L226.7 156.446H196.94L191.084 172.19H178.892ZM222.668 145.694L211.724 116.894L200.972 145.694H222.668ZM296.491 103.262H308.299V172.19H297.547L263.371 121.598V172.19H251.563V103.262H264.235L296.491 151.55V103.262ZM365.281 103.262H377.089V172.19H366.337L332.161 121.598V172.19H320.353V103.262H333.025L365.281 151.55V103.262ZM389.143 172.19V103.262H435.799V114.014H401.239V131.294H430.327V142.046H401.239V161.438H435.799V172.19H389.143ZM464.004 103.262H476.292V135.902L504.9 103.262H519.396L492.612 133.118L520.932 172.19H506.436L484.644 142.142L476.292 151.358V172.19H464.004V103.262ZM570.874 172.19H526.138V103.262H538.426V161.438H570.874V172.19ZM577.866 172.19V103.262H624.522V114.014H589.962V131.294H619.05V142.046H589.962V161.438H624.522V172.19H577.866ZM633.906 103.262H646.194V172.19H633.906V103.262ZM703.186 103.262H714.994V172.19H704.242L670.066 121.598V172.19H658.258V103.262H670.93L703.186 151.55V103.262Z" fill="black"/>
<path d="M1299.81 130.19C1299.81 102.576 1277.42 80.19 1249.81 80.19C1222.2 80.19 1199.81 102.576 1199.81 130.19C1199.81 157.804 1222.2 180.19 1249.81 180.19C1277.42 180.19 1299.81 157.804 1299.81 130.19Z" stroke="black" stroke-width="2" stroke-miterlimit="10"/>
<g clip-path="url(#clip0_606_6343)">
<path d="M1399 179.19L1300.52 80.71" stroke="black" stroke-width="2" stroke-miterlimit="10"/>
<path d="M1399 80.71V179.19H1300.52" stroke="black" stroke-width="2" stroke-miterlimit="10"/>
</g>
<defs>
<clipPath id="clip0_606_6343">
<rect width="100.19" height="100.19" fill="white" transform="translate(1299.81 80)"/>
</clipPath>
</defs>
</svg>
